<svg class="svg-set-icon align-self-start" id="svg-alphabridge" data-name="Layer 1" xmlns="http://www.w3.org/2000/svg"
     viewBox="0 0 40.124 40.065">
    <path d="M16.951,45.1C21.088,34.128,25.226,23.154,29.544,12h5.577C38.9,22.794,42.857,33.769,46.635,44.563,40.7,53.738,24.507,55,16.951,45.1ZM30.444,18.3h-.36c-2.339,5.937-4.5,12.054-7.016,18.35h9v2.7H21.988c-.9,1.979-1.619,3.778-2.519,5.577,7.2,6.477,18.89,6.117,24.647-.72-1.979-.18-3.778-.54-5.577-.72C36.021,34.848,33.322,26.572,30.444,18.3Z"
          transform="translate(-11.938 -12)"></path>
    <path d="M15.331,21.715c1.439,2.159,2.519,4.138,3.778,6.117-.72,2.159-1.619,4.138-2.339,6.3C14.072,29.991,13.532,25.313,15.331,21.715Z"
          transform="translate(-11.938 -12)"></path>
    <path d="M17.31,18.657c1.979-1.439,3.958-2.7,5.937-4.138.18.18.36.18.54.36-1.439,3.6-2.7,7.376-4.138,10.974h-.36C18.75,23.514,18.03,21.175,17.31,18.657Z"
          transform="translate(-11.938 -12)"></path>
    <path d="M45.016,28.192c1.079-1.979,1.979-3.778,3.238-5.937,2.7,4.138,0,7.736-.54,11.514a.661.661,0,0,0-.54.18C46.455,31.97,45.736,30.171,45.016,28.192Z"
          transform="translate(-11.938 -12)"></path>
    <path d="M45.915,20.276c-.54,1.619-.9,3.418-1.439,5.217h-.36c-1.079-3.058-2.159-6.117-3.238-9.355A7.574,7.574,0,0,1,45.915,20.276Z"
          transform="translate(-11.938 -12)"></path>
    <path d="M16.231,35.388c-.54,1.259-.9,2.519-1.439,3.778-1.8-2.519-2.159-4.318-1.8-8.1C14.252,32.689,15.152,33.949,16.231,35.388Z"
          transform="translate(-11.938 -12)"></path>
    <path d="M49.154,39.885c-.54-1.439-.9-2.7-1.439-4.318l2.7-3.778c.18,0,.36.18.72.18-.36,2.519-.72,5.217-.9,7.736A2.674,2.674,0,0,1,49.154,39.885Z"
          transform="translate(-11.938 -12)"></path>
</svg>