<svg class="svg-set-icon align-self-start" id="svg-sentrys" data-name="Layer 1" xmlns="http://www.w3.org/2000/svg"
     viewBox="0 0 40.124 40.065">
    <path d="M15.932,32.171c2.393,3.932,4.786,7.692,7.179,11.624,4.1-.855,8.205-1.538,12.308-2.564a9.343,9.343,0,0,0,6.325-5.3c1.709-.342,3.419-.684,5.3-1.026-1.026,1.709-1.88,3.419-2.906,4.957-2.051,3.248-5.3,4.615-8.889,4.957-3.077.342-6.325.513-9.4.684a5.284,5.284,0,0,0-1.368.342c.855,1.538,1.538,2.735,2.222,4.1-.171,0-.171.171-.342.171-1.026-1.2-2.051-2.564-3.077-3.932A12.564,12.564,0,0,0,16.1,50.462c.342-2.222,1.2-3.248,5.47-6.325C18.5,40.205,15.248,36.1,12,32c3.248-4.1,6.325-8.034,9.573-12.137-2.393-1.538-4.786-3.419-5.641-6.325a15.252,15.252,0,0,0,7.35,4.274c1.026-1.2,2.051-2.564,3.077-3.761.171,0,.171.171.342.171-.684,1.2-1.368,2.393-2.222,4.1,2.564.171,4.786.513,7.009.684,1.709.171,3.419.171,5.128.342a10.393,10.393,0,0,1,8.205,5.812c.684,1.368,1.538,2.564,2.393,4.1-1.709-.342-3.419-.513-5.3-.855-2.222-4.274-6.154-5.812-10.769-6.5-2.564-.342-5.3-.855-8.034-1.2C20.547,24.308,18.325,28.239,15.932,32.171Z"
          transform="translate(-11.938 -12)"></path>
    <path d="M38.667,29.094v6.154H20.205V29.094Z" transform="translate(-11.938 -12)"></path>
    <path d="M42.94,34.051V31.487c0-.342.171-.684.171-1.2,3.077,0,5.983-.342,8.889,1.88C49.265,34.393,46.188,33.709,42.94,34.051Z"
          transform="translate(-11.938 -12)"></path>
    <path d="M40.034,29.778h1.88v4.615a7.012,7.012,0,0,0-1.88.171Z" transform="translate(-11.938 -12)"></path>
</svg>