<svg class="svg-set-icon align-self-start" id="svg-hunters" data-name="Layer 1" xmlns="http://www.w3.org/2000/svg"
     viewBox="0 0 40.124 40.065">
    <path d="M32,40.955l4.478-2.687c2.836-1.642,5.075-3.731,6.119-7.015a10.3,10.3,0,0,1,2.985-4.179c.9-1.642,1.493-3.582,3.433-4.776-.448,1.642-.9,3.134-1.343,4.627-.3,1.194,0,2.09,1.493,2.239.746-.448,1.642-.9,2.537-1.343.149,0,.149.149.3.149-.746,1.045-1.493,2.09-2.388,3.433.448.746.9,1.493,1.493,2.537-1.045.149-2.836,0-2.687,1.791a10.7,10.7,0,0,0,1.493,3.284c-3.284-1.045-3.284-1.045-4.03.746,1.642,1.642,3.731,3.284,4.179,6.119a20.334,20.334,0,0,0-2.537-2.537c-.9-.746-1.791-1.343-2.836-2.239-.6.448-1.045.9-1.642,1.343,1.045,1.493,1.791,2.687,2.687,3.881l-.149.149a21.833,21.833,0,0,1-1.94-1.343,11.426,11.426,0,0,0-1.493,3.284,12.724,12.724,0,0,0-3.433-7.612A11.162,11.162,0,0,0,44.388,32,10.6,10.6,0,0,1,42.9,34.09c-1.493,1.493-3.134,2.985-4.776,4.328a27.143,27.143,0,0,1-3.433,2.239c-1.045.746-2.239,1.642-3.284,2.537.149.149.149.3.3.6-.448-.448-.9-1.045-1.343-1.493a27.031,27.031,0,0,0-3.134-2.687,47.943,47.943,0,0,1-4.478-3.134,28.887,28.887,0,0,1-3.433-4.03c0,2.985,1.343,5.075,5.522,8.507a12.468,12.468,0,0,0-3.134,7.91h-.448c0-1.045-.149-2.09-.149-3.134-1.493-1.045-2.09.448-3.134.746.9-1.343,1.642-2.687,2.687-4.03A20.15,20.15,0,0,0,19.015,41.1a62.53,62.53,0,0,0-5.075,4.179c.3-2.687,2.687-4.179,4.179-5.97-1.045-1.791-1.045-1.791-4.478-.448.448-.746.9-1.194,1.194-1.791.3-.746.746-1.791.448-2.388-.149-.448-1.343-.6-2.09-.9a.548.548,0,0,1-.448-.149c.6-.9,1.194-1.791,1.642-2.537A38.28,38.28,0,0,0,12,27.821l.3-.3a13.125,13.125,0,0,0,1.493.9c.6.149,1.642.6,1.94.3a2.35,2.35,0,0,0,.6-1.94,31.58,31.58,0,0,0-1.343-4.627c1.791,1.194,2.537,2.985,3.134,4.925A8.4,8.4,0,0,1,21.851,32.3c.746,2.836,3.134,4.627,5.672,5.97C28.866,39.164,30.507,40.06,32,40.955Z"
          transform="translate(-11.938 -12)"></path>
    <path d="M32.149,15.134c5.821,1.642,9.1,5.672,10.3,11.791-.3.9-.746,2.09-1.194,3.433a12.24,12.24,0,0,1-5.672,6.269L31.7,38.567c-2.09-1.343-4.776-2.687-6.567-4.627s-2.687-4.776-3.731-6.567C22.9,20.806,26.03,16.627,32.149,15.134Zm1.343,21.493a10.845,10.845,0,0,0,7.463-8.806c-.9-.149-1.493-.448-2.388-.6a12.839,12.839,0,0,0-2.388-.149v-.448c1.343-1.045,3.731.746,4.627-1.493a11.144,11.144,0,0,0-7.463-8.358c-.3.3-.746.746-.9.746-.448,1.642.149,2.985-.6,4.478-1.045-1.791.6-4.03-1.343-5.373a10.862,10.862,0,0,0-7.463,8.507c1.194,2.09,3.433.149,4.925,1.642-1.493,1.045-3.731-.746-4.925,1.493a10.635,10.635,0,0,0,7.612,8.358,6.491,6.491,0,0,1,1.045-.9V31.552h.448v4.179A4.235,4.235,0,0,1,33.493,36.627Z"
          transform="translate(-11.938 -12)"></path>
</svg>