<svg class="svg-set-icon align-self-start" id="svg-deadeye" data-name="Layer 1" xmlns="http://www.w3.org/2000/svg"
     viewBox="0 0 40.124 40.065">
    <path d="M22.3,38.731a13.453,13.453,0,0,0,17.119,2.825,13.142,13.142,0,0,0,5.485-6.15c.332-.831.831-1.33,1.662-1.163-.166,5.817-5.817,11.634-12.3,12.465-6.648,1-13.795-2.659-15.457-8.144A23.407,23.407,0,0,0,22.3,38.731Z"
          transform="translate(-11.938 -12)"></path>
    <path d="M21.141,25.6c-1.662,1.5-1.828,3.49-3.989,4.155q1.247-7.23,6.981-10.471a14.878,14.878,0,0,1,13.961-.831v.665c-1.828.166-3.49.166-5.485.332A21.571,21.571,0,0,1,21.141,25.6Z"
          transform="translate(-11.938 -12)"></path>
    <path d="M45.407,20.116c.831-.665,1.5-1.33,2.327-1.994.166-.166.5-.332.831-.665,1.33,1-.166,1.994,0,2.992,4.986,8.144,4.155,16.288,0,22.77.5,2.161.5,2.161,0,2.992-.831-1-1.828-1.828-2.825-2.825C51.058,35.906,51.224,28.26,45.407,20.116Z"
          transform="translate(-11.938 -12)"></path>
    <path d="M43.246,15.463c1.163-.166,1.994-.332,2.992-.5.166.166.166.332.332.5-.831,1-1.828,1.994-2.825,2.992a18.975,18.975,0,0,0-11.634-4.321,18,18,0,0,0-11.468,4.155c-1.163-1-2.161-1.828-3.158-2.659.166-.166.166-.5.332-.665,1,.166,1.828.332,2.825.5C28.122,10.975,35.767,10.975,43.246,15.463Z"
          transform="translate(-11.938 -12)"></path>
    <path d="M15.49,20.615c-.166-1-.332-1.994-.5-2.825.166-.166.332-.166.5-.332,1,1,1.994,1.828,2.992,2.825-5.651,7.812-5.651,15.457,0,23.435-1,.831-1.994,1.828-2.992,2.659-1.33-1,.166-1.828,0-2.992C10.837,36.072,10.837,28.427,15.49,20.615Z"
          transform="translate(-11.938 -12)"></path>
    <path d="M43.246,48.537c-7.479,4.488-15.125,4.488-22.6,0-1,.166-1.994.332-2.825.5-.166-.332-.5-.665-.665-1,1.163-.831,2.161-1.5,3.49-2.327,7.479,5.485,15.291,5.485,23.1-.166,1,1,1.994,1.828,2.992,2.825,0,.166-.166.5-.166.665C45.407,48.87,44.576,48.7,43.246,48.537Z"
          transform="translate(-11.938 -12)"></path>
    <path d="M46.9,31.584l-3.49-1,.665-1.994c-2.825-.332-5.651-.831-8.476-1.163,1.33-1.163,2.493-2.161,3.656-3.324h5.319A11.793,11.793,0,0,1,46.9,31.584Z"
          transform="translate(-11.938 -12)"></path>
    <path d="M39.756,33.413c1,.166,1.994.166,3.158.332-1.994,3.989-4.986,6.316-9.141,6.814-3.823.5-7.147-.831-10.138-4.155a30.226,30.226,0,0,0,3.158-1.33c1.5,2.825,3.656,4.654,6.981,4.321C37.263,39.064,38.925,36.737,39.756,33.413Z"
          transform="translate(-11.938 -12)"></path>
    <path d="M36.931,33.413c-.332,2.493-1.662,3.656-3.656,3.823a3.774,3.774,0,0,1-4.155-2.992,14.98,14.98,0,0,0,1.5-.831,16.551,16.551,0,0,0,1.662,1.828h1.994a10.5,10.5,0,0,1-.665-1.5C33.607,33.08,34.105,33.08,36.931,33.413Z"
          transform="translate(-11.938 -12)"></path>
    <path d="M20.476,32.914c-1,1-1.163,2.493-2.992,2.825-.166-.665-.166-1-.332-1.828a25.571,25.571,0,0,1,3.158-1.33A.515.515,0,0,0,20.476,32.914Z"
          transform="translate(-11.938 -12)"></path>
</svg>