<svg class="svg-set-icon align-self-start" id="svg-firecrest" data-name="Layer 1" xmlns="http://www.w3.org/2000/svg"
     viewBox="0 0 40.124 40.065">
    <path d="M26.8,52a23.689,23.689,0,0,1-7.55-9.317,5.62,5.62,0,0,1,.643-5.462l-3.855-1.446v-.321l-1.446.482c-1.446-1.446,2.41-5.622,4.98-5.783h.8a40.5,40.5,0,0,1,2.41-5.3,10.266,10.266,0,0,1,2.41-2.088.561.561,0,0,1,.321.161v4.659c4.016,1.285,4.016,1.285,5.944,3.695.482.161.964.161,1.606.321-.321,2.41-1.928,3.695-4.016,4.659,1.606,2.088.8,3.855-.321,5.783A16.417,16.417,0,0,0,26.8,52Z"
          transform="translate(-11.938 -12)"></path>
    <path d="M38.04,12c2.088,1.767,2.249,3.373.964,5.783-1.767.643-3.373,1.446-4.98,2.088,0,.321-.161.482-.161.8.643.643,1.285,1.285,2.249,2.41.964-1.124,1.606-2.088,2.249-2.892a12.59,12.59,0,0,1,2.41-1.606c1.606-.964,3.373-1.928,4.98-2.892,1.285,2.088.964,7.068-.643,8.835a5.183,5.183,0,0,1-3.052,1.606c-4.659.161-9.157,0-13.655,0-1.767-4.819.482-9.317,5.3-10.281C35.952,15.534,37.237,13.928,38.04,12Z"
          transform="translate(-11.938 -12)"></path>
    <path d="M49.285,23.888c1.285,5.141-.161,8.514-5.141,12.53,1.124,2.731,2.088,5.462,3.373,8.514-2.41-.964-4.5-2.57-5.141-5.141A16.334,16.334,0,0,0,35.47,29.51a.7.7,0,0,1-.161-.482C40.932,30.153,45.43,28.386,49.285,23.888Z"
          transform="translate(-11.938 -12)"></path>
    <path d="M30.972,13.124c-.8,1.124-1.285,2.249-2.088,2.731a6.286,6.286,0,0,0-3.052,4.5c-2.088-.964-2.731-3.052-1.446-4.5.8-.964,2.249-1.446,3.534-2.088C28.723,13.446,29.687,13.446,30.972,13.124Z"
          transform="translate(-11.938 -12)"></path>
</svg>