<svg class="svg-piece-icon align-self-center" id="svg-gloves" data-name="Layer 1" xmlns="http://www.w3.org/2000/svg"
     viewBox="0 0 40.124 40.065">
    <path d="M20.856,36.292c0-.589-.687-.884-.2-1.767.982-2.16,1.865-4.418,2.945-6.578a13.639,13.639,0,0,0,.589-1.865c.393-1.276.2-2.847,2.062-3.436.687-.2,1.963-.589,2.258.2.491,1.08,1.963.589,2.16,1.669.2.982-.295,2.16.1,2.847.491.785,0,1.08-.1,1.473-.393,1.178-.491,1.178,2.16,2.258.589.2.2-.295-.295-.687a1.084,1.084,0,0,0-.785,0,1.075,1.075,0,0,0,0,.785,1.47,1.47,0,0,0,1.767.785c.1,0,.2-.2-.687-.982-1.08-1.473-1.473-2.258-1.08-3.24a9.776,9.776,0,0,0,.1-2.945c0-.2.1-.295.2-.491.2.2.491.295.589.491a15.859,15.859,0,0,1,.2,3.043c-.1,1.374.393,2.16,1.571,2.356.884.2,1.669-.785,2.552-.1.1.1.491-.393.687-.589-.2-.1-.491-.393-.687-.393H34.5c-.491,0-1.08.295-1.08-.687-.1-.884.393-1.08,1.08-.982h.491c.2.2.491.491.687.491a20.52,20.52,0,0,1,2.454.1c.589.1,1.473.393,1.669.884.491.884-.884.491-1.08,1.08l-.295.589c.295.1.491.1.785.2a1.549,1.549,0,0,1,.785.491c.1.687-.393.589-.884.589a3.978,3.978,0,0,0-1.08,0c-.295.1-.589.295-.884.393l-.393.393c.1.1.295.295.393.295h2.454c.1,0,.2.2.393.295-.1.1-.2.295-.393.393a1.582,1.582,0,0,1-.687.393c-.491.2-1.178-.393-1.473.393,0,.1.884.393,1.178.785a4.033,4.033,0,0,1,.785,3.142,1.143,1.143,0,0,1-1.276,1.08q-1.031.147-.884-.884a1.419,1.419,0,0,0-.2-.687c-1.178-.982-.982-2.062-.589-3.338.2-.589-.2-.982-.785-.785-.295.1-.687.2-.982.295-.687.1-.491.1-.295.687a11.058,11.058,0,0,1,.2,3.142c0,.2-.491.393-.785.491a1.168,1.168,0,0,1-1.374-.982c-.1-1.178-.491-2.552.785-3.436.2-.1.295-.687.2-.687-.295-.2-.589-.393-.884-.295a1.867,1.867,0,0,0-1.08.687,3.681,3.681,0,0,0,0,4.516c.589.589.884,2.356,2.454,1.374.1-.1.393,0,.491.1a2.926,2.926,0,0,1,.1,3.632c-.2-.589-.589-1.178-1.276-1.08-.687.2-.982.785-.982,1.669.1,1.08,0,2.16,0,3.142-.2-.1-.491-.295-.491-.393.1-3.436-1.276-6.479-2.651-9.425a3.335,3.335,0,0,0-3.927-1.963,1.183,1.183,0,0,0-.491.491c-.785,1.669-2.062,2.945-2.945,4.516-.785,1.276-1.669.785-2.552.982-.1,0-.295-.2-.393-.295-.393-.785.491-4.025,1.374-4.516.1-.2.393-.1.687-.1a9.055,9.055,0,0,0-.491.785c.295.1.687.295.982.2,1.374-.2,1.178-1.178,1.178-2.16,1.08-.295,1.178-1.374,1.571-2.062.393-.589.295-1.571.785-2.062a1.638,1.638,0,0,1,1.865-.393c.393.2.687-.982.982-3.436a11.088,11.088,0,0,0,.785-2.258l-.295-1.178c-.1.295-.1.687-.2.982-.295.884-.785,1.669-1.08,2.552-.1.393,0,1.178.295,1.276.785.295.687-.295.785-.884.1-.785.393-1.571-.295-.491-1.178,1.767-1.571,2.062-2.062,2.356-.982.491-1.963.884-2.062,2.258-.1,1.08-1.276,1.963-.982,3.24-.491,0-1.08-.2-1.08.687C21.445,36,21.053,36.194,20.856,36.292Z"
          transform="translate(-11.938 -12)"></path>
    <path d="M33.03,17.05a7.827,7.827,0,0,0,1.473.295.691.691,0,0,0,.491-.393.7.7,0,0,0-.295-.589c-.2-.1-.491,0-.785,0-1.178-.2-1.473-.393-1.571-1.571,0-.785.1-1.571-.785-2.16-.1-.1-.1-.393-.1-.589.2,0,.393-.1.491,0a2.543,2.543,0,0,0,2.258,1.08c0,.295-.2.884-.1.884a2.7,2.7,0,0,0,1.276.2c.1,0,.2.2.1.2-1.178,1.08,1.178,1.374.491,1.963-1.178,1.178-.2,2.16.1,3.043a19.53,19.53,0,0,0,2.258,4.221c.2.393.687.687.2,1.08a3.627,3.627,0,0,1-1.374.687c-.295.1-.687-.2-.884-.491-.393-.393-.687-.687-1.178-.1-.2.2-1.473.589-1.374-.785,0-.1-.491-.295-.687-.295-1.374.589-1.669-1.178-2.847-1.178-.1,0-.2-.589-.295-.884-.1-.687.295-1.473-.491-1.963a.62.62,0,0,1,.1-.687A6.375,6.375,0,0,1,33.03,17.05Z"
          transform="translate(-11.938 -12)"></path>
    <path d="M40.393,44.048c.1.785-.295.982-.982.884a2.041,2.041,0,0,0-1.08.1c-.589.2-.884,1.473-1.669.785-.393-.295-.2-1.276-.2-2.062a7.764,7.764,0,0,0-.982-3.338c-.1-.2,0-.491-.1-.687a2.669,2.669,0,0,1,.884,0,3.939,3.939,0,0,0,1.473.295c1.276-.295,1.473.785,1.767,1.374A6.523,6.523,0,0,1,40.393,44.048Z"
          transform="translate(-11.938 -12)"></path>
    <path d="M41.178,41.2c1.276,0,2.356.687,2.356,1.865a6.516,6.516,0,0,0,.589,1.963c.1.589-.2,1.669.1,1.767.884.491-.295,1.276.393,1.571.1,0,.2.393.1.491-.491.491-.884,1.276-1.473,1.374-.393.1-.589-.785-.785-1.473-.589-2.258-.687-4.712-1.669-6.774C40.294,41,40.589,41.2,41.178,41.2Z"
          transform="translate(-11.938 -12)"></path>
    <path d="M29.5,13.614v1.571c0,2.258-.2,2.847-2.356,4.32-.491.393-.295.687-.393,1.08-.982-.589-.982-1.571-1.08-2.552a4.828,4.828,0,0,1,.687-3.142A2.844,2.844,0,0,1,29.5,13.614Z"
          transform="translate(-11.938 -12)"></path>
    <path d="M42.552,38.158a11.747,11.747,0,0,1-.589,1.669.7.7,0,0,1-.589.295c-.2,0-.393-.295-.393-.491-.295-.884-.589-1.865-.982-2.847a.79.79,0,0,1,.295-1.08c.1-.1.295-.393.393-.393C41.08,35.311,42.454,37.274,42.552,38.158Z"
          transform="translate(-11.938 -12)"></path>
    <path d="M33.324,44.833a3.978,3.978,0,0,1,0-1.08c0-.2.295-.393.491-.393a.54.54,0,0,1,.491.295c1.473.982,1.08,2.454.982,3.829,0,.1-.491.295-.687.2A3.176,3.176,0,0,1,33.324,44.833Z"
          transform="translate(-11.938 -12)"></path>
    <path d="M39.411,45.913a19.992,19.992,0,0,1,1.473,1.669,3.3,3.3,0,0,1,.491,1.374,2.059,2.059,0,0,1-.393,1.08c-.491.687-.687-.1-.884-.295a3.173,3.173,0,0,1-1.276-2.356C38.724,46.9,39.116,46.5,39.411,45.913Z"
          transform="translate(-11.938 -12)"></path>
    <path d="M35.19,25.493c.884.295,1.571.393,2.258.687.295.1.393.491.687.687-.295.295-.785.785-.982.687a1.687,1.687,0,0,0-1.669,0c-.982.393-.1-1.08-.884-1.08A4.292,4.292,0,0,1,35.19,25.493Z"
          transform="translate(-11.938 -12)"></path>
    <path d="M44.123,37.765a2.035,2.035,0,0,1-.2.589,2.461,2.461,0,0,0-.393-.687c-.491-.785-1.08-1.473-1.571-2.258-.1-.1.1-.491.295-.687a.446.446,0,0,1,.491,0A3.739,3.739,0,0,1,44.123,37.765Z"
          transform="translate(-11.938 -12)"></path>
    <path d="M37.644,48.76a1.659,1.659,0,0,1,.2-.491c.1.2.295.393.295.589-.1,1.276,1.178,1.669,1.767,2.454l.295.589c-.295,0-.491.1-.785.1C38.331,51.705,37.644,50.626,37.644,48.76Z"
          transform="translate(-11.938 -12)"></path>
    <path d="M31.164,15.578v.295a3.488,3.488,0,0,0-.2.982,3.12,3.12,0,0,1-.295-.884c0-.884.1-1.767-.785-2.356a.59.59,0,0,1-.1-.393c.1-.2.393-.393.589-.589.1.2.295.393.295.589.295.785.491,1.571.785,2.356C31.263,15.48,31.263,15.578,31.164,15.578Z"
          transform="translate(-11.938 -12)"></path>
    <path d="M35.091,49.644a1.831,1.831,0,0,1-.982.1,7.847,7.847,0,0,1-1.276-1.276c-.1-.2,0-.491,0-.785.2.1.295.1.491.2a12.791,12.791,0,0,1,1.473.982C34.895,48.957,34.895,49.251,35.091,49.644Z"
          transform="translate(-11.938 -12)"></path>
    <path d="M27.63,21.174a1.727,1.727,0,0,1-.589-.1c-.1,0-.2-.393-.2-.393.589-.393,1.276-.687,1.963-1.08a1.82,1.82,0,0,1,.2.687,1.02,1.02,0,0,1-.393.785C28.416,21.272,28.023,21.174,27.63,21.174Z"
          transform="translate(-11.938 -12)"></path>
    <path d="M45.3,43.655a5.632,5.632,0,0,0-.393.687c-.2-.2-.491-.295-.491-.589a5.178,5.178,0,0,1-.295-1.178c0-.1.2-.295.295-.393.1.1.295.2.393.393A11.516,11.516,0,0,0,45.3,43.655Z"
          transform="translate(-11.938 -12)"></path>
    <path d="M34.011,25.69a5.48,5.48,0,0,1-.491.785,2.9,2.9,0,0,1-.2-.982c0-.2.2-.393.295-.687A2.426,2.426,0,0,0,34.011,25.69Z"
          transform="translate(-11.938 -12)"></path>
    <path d="M32.735,47.68l-.589-.589A1.667,1.667,0,0,1,32.735,47.68Z" transform="translate(-11.938 -12)"></path>
    <path d="M43.927,40.71l.2.2c-.1.1-.2.1-.393.2l-.2-.2C43.731,40.808,43.829,40.808,43.927,40.71Z"
          transform="translate(-11.938 -12)"></path>
</svg>