<svg class="svg-piece-icon align-self-center" id="svg-backpack" data-name="Layer 1" xmlns="http://www.w3.org/2000/svg"
     viewBox="0 0 40.124 40.065">
    <path d="M30.685,26.468a10.24,10.24,0,0,0-.273-1.635c-.273-.909-1.181.818-1.272-.454,0-.363-.727-.818-1.181-.909-.545-.091-1.272-.363-1.817.273,0,0-.363-.182-.363-.273.182-1.454.818-1.817,2.362-1.545.727.091,1.635-.363,2.272.454.091.091.545.091.636-.091,1-.909,1.545-.182,2.272.454.182.182.636.091.909.182,1.363.909,2.635,2,4.089,2.817.909.454,1.363,1.272,2.181,1.817a5.487,5.487,0,0,1,2.09,2c.182.454.636.454,1.181.182,1-.454.545-1.817,1.454-2.272,0,.909.182,1.908-.818,2.635-.454.273-.091.636.091,1a1.253,1.253,0,0,1,0,.818c0,.091-.454.091-.636,0s-.363-.636-.636-.091c-.091.182,0,.454,0,.727-.182.091-.363.091-.454.182-.727,1.272-1,1.363-2.09.545l-2.453-1.908c-.091-.091-.363-.091-.545-.091.091.182.091.454.182.636s.363.545.545.545c.909,0,.909.545.818,1.181a1.132,1.132,0,0,1-1.272.909,1.493,1.493,0,0,1-1.272-.454v-.727a6.261,6.261,0,0,0-.273-.727,2.688,2.688,0,0,0-.182.909v.727c0,.091.182.273.273.363l.273-.273V34.1c-.091,1,0,1.635-.363,2a9.885,9.885,0,0,1-2.362,1.908.508.508,0,0,1-.818-.454c.727,0,.454-.545.454-.909V30.193a1.924,1.924,0,0,1,.273-.636c.091.091.182.273.363.363,1,.545.909,1.454.909,2.362,0,.091.182.182.363.182,0,0,.182-.091.182-.182v-1c0-.818.182-.818.727-.273.091.091.454-.091.636-.091a3.025,3.025,0,0,0-.273-.545c-1.454-.636-2.453-2-3.816-2.726C32.23,27.2,31.776,26.1,30.685,26.468Z"
          transform="translate(-11.938 -12)"></path>
    <path d="M33.229,17.473c-1.09.273-1,1.272-1.454,2-.182.273,0,.727-.182.909-.454.363-.818,1.454-1.454,1.09s-.454-1.272-.091-1.908a37.051,37.051,0,0,1,2.908-5.27A4.859,4.859,0,0,1,37.5,12.021c1.09.091.636.454.363.909-.091.091.273.545.454.636a3.665,3.665,0,0,0,1,0c.273.727,1.817.909.636,2.181-.363.363-.182,1.272-.182,1.908a.689.689,0,0,0,.182.363c.091-.182.273-.363.273-.545.091-.363-.091-.909.091-1.181a1.313,1.313,0,0,1,.909-.636c.636-.091.454.545.454.909a10.241,10.241,0,0,0,.273,1.635,1.023,1.023,0,0,0,.727.454c.091,0,.273-.454.454-.636a2.72,2.72,0,0,1,.363-.727c.182.273.636.454.636.727a22.1,22.1,0,0,1,0,2.453v3.271H43.86c-.454.545-.545,1.726-1.272,1.363A3.627,3.627,0,0,1,40.5,23.47a10.437,10.437,0,0,1-.909-4.361c0-.091-.182-.273-.273-.363-.091.091-.273.273-.273.363a29.352,29.352,0,0,0,0,4,2.4,2.4,0,0,0,1.545,2.181,1.181,1.181,0,0,1,.909,1.454,10.259,10.259,0,0,1-4.361-2.635c-.454-.545-.909-.818-.273-1.635.273-.363-.273-1.272-.363-1.908-.091-1.635,0-3.271,0-5a7.771,7.771,0,0,1,0-1.454,1.039,1.039,0,0,0-.818-1.272,1.12,1.12,0,0,0-.727,1.363A3.133,3.133,0,0,0,33.229,17.473Z"
          transform="translate(-11.938 -12)"></path>
    <path d="M21.236,28.013c2.635,1.181,2.817.273,3-.636.091-.363.273-.909-.454-.909-.182,0-.454.363-.545.545A5.5,5.5,0,0,1,20.6,29.921c-.363.182-.545.727-.909,1a5.072,5.072,0,0,1-.727.454,5.4,5.4,0,0,0-.727.363,6.592,6.592,0,0,0,.454.818c.182.182.636.182.818.363.363.363,1,.636.182,1.272a1.5,1.5,0,0,0-.273,2.181c.273.454-.091.545-.182.727-.273.454-.454.182-.727-.091a4.8,4.8,0,0,1-1.908-4.27,5.953,5.953,0,0,0,0-1.272c0-1.09,0-1-1.09-2-.454-.454-1.363-.818-.273-1.635a.916.916,0,0,0,.273-.818,4.016,4.016,0,0,1,.545-2.272c.091-.273.182-.636.273-.909.091.091.182.273.363.363,1.817.182,1.817.182,1.908.909v.727c-.182.818.636.545.727.454a4.213,4.213,0,0,1,2.09-1.09,5.619,5.619,0,0,1,2.453-.454c1,0,2-.454,3-.454.818,0,1.363,0,1.363,1.181,0,1,.727,2,.454,3,0,.182-.363.273-.545.363a1.332,1.332,0,0,1-.363-.182c.091-1.635-1.363-2.09-2.181-3.089-.091-.091-.545,0-.818,0,.091.273.091.636.273.818a9.448,9.448,0,0,1,1.908,2.453c.182.363.273.363-.182.636-.818.454-1.545,1-2.362,1.545-.182.091-.363.273-.545.363-.091-.182-.091-.454-.182-.727,0-.091,0-.273-2.453-2.635-3.271-1.181-4.089-.727-3.907.545-.182,0-.363-.182-.545-.182a.773.773,0,0,0-.454.273l.636.636a1.7,1.7,0,0,0,.363-.818C18.056,28.013,18.782,27.558,21.236,28.013Zm-2.544.636c-.091-.091-.091-.182-.182-.182s-.182.091-.363.182c.091.091.091.182.182.182A.472.472,0,0,0,18.692,28.649Zm-.909,2.09.182.182c.091-.091.091-.182.182-.363l-.182-.182C17.874,30.557,17.874,30.648,17.783,30.739Z"
          transform="translate(-11.938 -12)"></path>
    <path d="M28.232,42.46a4.536,4.536,0,0,0,2.726-.818,31.3,31.3,0,0,0,6.36-5.088c.818-.909,1.817-.545,2.726-.636.182,1.181,1.363.454,1.908,1a2.245,2.245,0,0,1,.363.818V42.46a3.025,3.025,0,0,1-1.635,2.726c-.727.363-1.726.091-2.635.091-.091,0-.273-.545-.182-.636.454-.727,1.09-1.363,1.545-2.09.182-.273.454-.636.363-.818a5.185,5.185,0,0,0-1.181-1.272,1.294,1.294,0,0,0-.363.182,7.121,7.121,0,0,0-1.363.909c-.727.636-1.272,1.272-2,1.908-.363.363-.727,1.181-1.363.909-.818-.454.091-.909.182-1.363.182-.818-.091-1.09-.818-1.09a2.311,2.311,0,0,0-2.181,1c-.545.091-1.09.182-1.545.273C28.414,43.55,28.414,43.55,28.232,42.46Z"
          transform="translate(-11.938 -12)"></path>
    <path d="M28.232,42.46c-.636,0-1.363.182-1.726-.545-.545-.909-1.545-1.817-1.635-2.726-.182-2.09-1.545-4-1.09-6.269.091-.454.091-.545.545-.273a12.264,12.264,0,0,0,2.362,1.363,5.123,5.123,0,0,0,1.09.363l.545.545c0,.727.636.454,1,.545-.182.818.182,1.181,1,1l.545.545,1,1c.727,1.635.727,1.545-.636,2.544-.818.545-1.454,1.181-2.544,1C28.5,41.46,28.323,42.1,28.232,42.46Z"
          transform="translate(-11.938 -12)"></path>
    <path d="M27.687,34.464a2.468,2.468,0,0,0-1.726-1.545c-.091,0-.273-.363-.273-.545s.273-.363.454-.454a5.136,5.136,0,0,1,1.181,0c.091,0,.182-.182.273-.273-.182-.091-.273-.182-.454-.182h-.454c-.182,0-.273-.091-.454-.091a3.024,3.024,0,0,1,.273-.545,2.647,2.647,0,0,1,1.635-.182c.273.091,0-.091-.363-.182-.091,0-.182.182-.273.182.273.273.545.454.818.727.091-.091.091-.273-.273-.727-.454-.545-.727-1-.182-1.181,1.454-.454,1.817-1.181,1.363-2.453a2.666,2.666,0,0,1-.273-.909,1.685,1.685,0,0,1,.182-.636,4.43,4.43,0,0,1,.273.636c.182.636.636.273,1,.363a1.335,1.335,0,0,0,.454,1.272,1.459,1.459,0,0,1,.454,1c0,.727,0,.727.454.545,1.09-.454,1.09-.454,1.09.545v7.632c-.545.182-1,.363-1.545.545.182-.818-.182-1.181-1-1l-.545-.545-1-1c0-.727-.636-.454-1-.545C28.05,34.736,27.869,34.646,27.687,34.464Zm3.362-4.634c-.454-.273-.727-.454-.818-.363a10.889,10.889,0,0,0-1,1.09l.091.182c.182-.091.363-.091.545-.182C30.14,30.375,30.5,30.193,31.049,29.83Z"
          transform="translate(-11.938 -12)"></path>
    <path d="M35.228,13.929a2.425,2.425,0,0,1,1,2.362v5.452c0,1.454,0,1.454-1.454.636-.363-.909-1.545-.363-2-1.272-.273-.545-.636-.727-.182-1.363a3.087,3.087,0,0,0,.727-2.362C34.047,16.383,35.228,15.474,35.228,13.929Z"
          transform="translate(-11.938 -12)"></path>
    <path d="M42.77,39.189V38.28c.091-.454-.273-1.09.363-1.272.363-.091.909.273,1.272.454.182.091.273.454.363.727.727,1.726,0,3.089-1,4.452a.689.689,0,0,1-.363.182c-.091-.182-.091-.273-.182-.454A6.473,6.473,0,0,1,42.77,39.189Z"
          transform="translate(-11.938 -12)"></path>
    <path d="M45.768,38.462V37.19c0-1.363.091-1.454,1.363-1.272a.85.85,0,0,1,.636.454c.363,1.363-.636,2.544-.636,3.816,0,.182-.636.636-.909.636-.636,0-.363-.545-.454-.909A7.754,7.754,0,0,1,45.768,38.462Z"
          transform="translate(-11.938 -12)"></path>
    <path d="M21.963,33.01c.454.545.636.636.727.818.182.909-.363,2,.454,2.817a5.483,5.483,0,0,0-.727.727c-.454-1-1.545-.818-2.181-1.272-.273-.182-.273-.545-.454-.818.273-.091.545-.363.727-.363.818,0,1.454,0,1.272-1.181C21.69,33.646,21.872,33.374,21.963,33.01Z"
          transform="translate(-11.938 -12)"></path>
    <path d="M47.222,41.914a10.627,10.627,0,0,0,.454-1.817,10.951,10.951,0,0,0,0-1.726c.363-.091.818.273,1-.363s.363-1.181.545-1.817c0-.091.182-.182.273-.273,0,0,.182.091.182.182,0,.636.273,1.545,0,1.908a3.379,3.379,0,0,0-.454,1.817C49.13,41.1,48.676,41.551,47.222,41.914Z"
          transform="translate(-11.938 -12)"></path>
    <path d="M16.238,32.828v1c-.091.182-.182.636-.273.545a2.245,2.245,0,0,1-.818-.363,3.363,3.363,0,0,1-.909-2.635c.091-.454.091-.909.182-1.454a4.564,4.564,0,0,1,1.181,1.09A11.076,11.076,0,0,1,16.238,32.828Z"
          transform="translate(-11.938 -12)"></path>
    <path d="M44.769,34.555v1c0,.363.182,1-.363.909-.363,0-.818-.454-1.09-.818-.182-.273,0-.818,0-1.181V33.01c0-.454.091-.636.454-.454.363.091.909.182,1,.363A9.762,9.762,0,0,1,44.769,34.555Z"
          transform="translate(-11.938 -12)"></path>
    <path d="M37.681,49v2.726c0,.091-.273.273-.363.273-.182,0-.545-.182-.545-.273,0-1.635-.091-3.271,0-5,0-.273.454-.454.636-.727.091.273.273.454.273.727a1.955,1.955,0,0,1,0,.727Z"
          transform="translate(-11.938 -12)"></path>
    <path d="M35.047,45.458h-.454c-.091,0-.273-.182-.363-.273.091-.091.273-.182.363-.273.545-.363,1.363-.727,1.454-1.181.273-1.09,1.454-.909,1.817-1.726h.363l.091.182a5.557,5.557,0,0,1-2.453,3.089C35.592,45.549,35.319,45.458,35.047,45.458Z"
          transform="translate(-11.938 -12)"></path>
    <path d="M48.312,35.191h-.636a6.877,6.877,0,0,0-1.363-.091c-.273.091-.636.727-.636-.182,0-.363-1-.636-.182-1.09.363-.182.363-1.09,1.181-.636A3.041,3.041,0,0,1,48.312,35.191Z"
          transform="translate(-11.938 -12)"></path>
    <path d="M29.686,46c-.727-1.181.909-1.726,1.09-2.817a4.86,4.86,0,0,1,1.363-.091c0,.182.091.636,0,.636-1.908.545-2,2-1.908,3.634a.773.773,0,0,1-.273.454c-.091-.182-.182-.273-.182-.454A5.232,5.232,0,0,1,29.686,46Z"
          transform="translate(-11.938 -12)"></path>
    <path d="M23.053,23.015a.4.4,0,0,0,.091.273c-.818.545-1.635,1.09-2.544,1.635-.091,0-.363-.091-.363-.182-.091-.363-.182-.818,0-.909a6.372,6.372,0,0,1,1.908-1.272C22.326,22.379,22.78,22.834,23.053,23.015Z"
          transform="translate(-11.938 -12)"></path>
    <path d="M47.222,42.187c.182,1-.182,1.635-.818,1.726a2.709,2.709,0,0,1-1.545-.727c-.273-.182.545-1.181.818-1,.545.454.636-.091.909-.182C46.768,41.914,47.04,42.1,47.222,42.187Z"
          transform="translate(-11.938 -12)"></path>
    <path d="M45.223,23.924c.273,1.454-1,2.272-1.545,3.271,0,0-.363,0-.454-.091a.806.806,0,0,1-.363-.454l.818-1.363c.363-.454.727-.909,1-1.272A1.152,1.152,0,0,1,45.223,23.924Z"
          transform="translate(-11.938 -12)"></path>
    <path d="M41.316,36.009a14.147,14.147,0,0,0-1.363-.545c-.454-.091-.909-.091-.727-.636.091-.363.273-1.181,1.09-.545.182.182.636.091.909.182.818.091.454.727.454,1.09C41.679,35.736,41.407,35.827,41.316,36.009Z"
          transform="translate(-11.938 -12)"></path>
    <path d="M46.949,31.465c.636,0,2.362,1.635,2.181,2.272-.091.273-.454.454-.636.727-.091-.182-.273-.363-.273-.454,0-1.09-.545-1.635-1.635-1.545-.091,0-.273-.273-.182-.363C46.495,31.829,46.768,31.647,46.949,31.465Z"
          transform="translate(-11.938 -12)"></path>
    <path d="M45.223,18.927c0,.091-.182.818-.273,1.454a13.556,13.556,0,0,1-.182-1.908c0-.909.182-1.817-.454-2.544-.091-.091,0-.363,0-.454.182.091.363.091.454.182.182.273.545.636.545,1C45.314,17.2,45.223,17.746,45.223,18.927Z"
          transform="translate(-11.938 -12)"></path>
    <path d="M45.677,23.379c0-.273,0,.091-.091.363,0,.091-.091.091-.182.182h-.273c0-.818.091-1.545.091-2.362a.317.317,0,0,1,.182-.091.2.2,0,0,1,.182.182A7.912,7.912,0,0,1,45.677,23.379Z"
          transform="translate(-11.938 -12)"></path>
    <path d="M39.226,13.475c.818-1.272.636-1.272,1.545,0Z" transform="translate(-11.938 -12)"></path>
    <path d="M30.322,50.183a1.535,1.535,0,0,0-.454.182,3.228,3.228,0,0,1-.182-.909c0-.182.182-.273.273-.454A3.627,3.627,0,0,1,30.322,50.183Z"
          transform="translate(-11.938 -12)"></path>
    <path d="M40.68,13.475c.454.182,1.272-.454,1.545.545C41.77,13.748,40.952,14.384,40.68,13.475Z"
          transform="translate(-11.938 -12)"></path>
    <path d="M42.225,26.922a1.986,1.986,0,0,1-.273.454c-.091-.273-.182-.454-.273-.727,0-.091.182-.182.182-.273A5.381,5.381,0,0,0,42.225,26.922Z"
          transform="translate(-11.938 -12)"></path>
    <path d="M43.769,14.929c-.363-.091-1,.273-1-.545C43.133,14.475,43.678,14.2,43.769,14.929Z"
          transform="translate(-11.938 -12)"></path>
    <path d="M34.229,22.925l.545-.545Z" transform="translate(-11.938 -12)"></path>
    <path d="M45.5,27.013l.182.182c-.091.091-.182.182-.182.273l-.182-.182C45.314,27.1,45.4,27.1,45.5,27.013Z"
          transform="translate(-11.938 -12)"></path>
    <path d="M44.223,23.47l.545.545A1.543,1.543,0,0,0,44.223,23.47Z" transform="translate(-11.938 -12)"></path>
    <path d="M43.769,14.929l.545.545A1.543,1.543,0,0,1,43.769,14.929Z" transform="translate(-11.938 -12)"></path>
    <path d="M42.77,14.475l-.545-.545Z" transform="translate(-11.938 -12)"></path>
</svg>