<svg class="svg-set-icon align-self-start" id="svg-nomad" data-name="Layer 1" xmlns="http://www.w3.org/2000/svg"
     viewBox="0 0 40.124 40.065">
    <path d="M36.11,41.989c1.09-1.817,2-3.271,2.908-4.906a10.762,10.762,0,0,1-.727-1.09c-2.181,1.635-4.18,3.089-6.179,4.543H25.025l-.363-.363c2.908-2,5.633-4.18,8.541-6q4.361-3,9.268-6c-2.181-1.454-2.908,1.09-4.543,1.09a11.609,11.609,0,0,0-4,1.09c.545-.545,1.454-1.454,2.362-2.544l-.363-.363a9.791,9.791,0,0,1-2.362,1.272,7.532,7.532,0,0,1-2.908.363c3.453-3.089,6.36-6.724,7.451-11.448,2.362,5.815,5.633,10.176,11.812,11.63.363-.545.545-1.272,1.09-2.181,3.453,7.814-2,19.081-10.54,23.079-9.995,4.543-21.988.363-26.531-9.45-2.544-5.27-2.726-11.994-.182-13.266-1.272,7.632.727,14.174,6.724,19.081a18.142,18.142,0,0,0,11.267,4,18.5,18.5,0,0,0,17.99-14.174,14.742,14.742,0,0,0-2-.545,6.138,6.138,0,0,0-1.272,2,7.229,7.229,0,0,1-4.725,4.18c-1.09.363-2.362.545-3.634.909-1.09.363-2.362.545-3.089,1.272-2.362,2.362-5.633,2.544-8.541,3.271C30.113,45.624,33.2,43.806,36.11,41.989Z"
          transform="translate(-11.938 -12)"></path>
    <path d="M14.848,22.727c2-5.633,9.813-10.54,17.082-10.722s15.083,4.543,17.627,10.722c-1.454.727-1.635-.545-2.181-1.272C43.015,15.64,37.2,12.914,29.931,13.641a17.865,17.865,0,0,0-13.084,7.814C16.484,22.181,16.12,23.272,14.848,22.727Z"
          transform="translate(-11.938 -12)"></path>
    <path d="M33.565,22.181c-1.817,2-3.634,4.18-5.633,6.179-.909.909-2.544.909-3.816,1.635-1.454.727-3.089,1.635-4.725,2.362,1.454-2.362,2.362-4.543.909-7.451l2.544-3.816A14.312,14.312,0,0,0,24.3,24c1.454,2.362,3.271,2.908,5.452,1.09,1.09-.909,2.181-2,3.271-3.089C33.2,21.818,33.384,22,33.565,22.181Z"
          transform="translate(-11.938 -12)"></path>
    <path d="M28.114,34.175c-1.09.909-2,1.635-2.726,2.362a10.715,10.715,0,0,0-1.454-.727c-2,.727-3.816,1.272-5.633,2,0-.182-.182-.363-.182-.727C21.027,35.447,23.934,33.812,28.114,34.175Z"
          transform="translate(-11.938 -12)"></path>
    <path d="M26.478,42.534c-1.09,2.362-3.271,1.635-5.088,2.544A4.326,4.326,0,0,1,26.478,42.534Z"
          transform="translate(-11.938 -12)"></path>
</svg>