<svg class="svg-piece-icon align-self-center" id="svg-chest" data-name="Layer 1" xmlns="http://www.w3.org/2000/svg"
     viewBox="0 0 40.124 40.065">s
    <path d="M30.9,34.393A12.1,12.1,0,0,1,28.012,30.8c-1.2-1-.4-2.293-.6-3.489,0-.1.2-.2.4-.2.1,0,.4,0,.4.1.3,1.2,1.5,1.794,2.193,2.692.9,1.2,2.293,1.5,4.386,2.293,1-.2.2-.3-.4-.6-.1-.1-.3-.1-.4-.2,0,.2-.1.3,0,.5.3.5.5,1,.8,1.6l.3.3c.1-.2.2-.5-.4-1.5-1.5-1.5-2.193-2.094-2.891-2.692a5.565,5.565,0,0,0-.8-.5c-.2-.1-.9.3-.7-.4.1-.3.6-.4.9-.6.2-.1.5,0,.7,0s.4-.2.6-.3l-.3-.3q-.9-.6,0-1.2a8.4,8.4,0,0,1,1.4-.6c.2-.1.3-.5.4-.7-.3-.1-.6-.3-.8-.2a14.265,14.265,0,0,0-1.5,1.1.748.748,0,0,1-1.2,0c-.9-1-1.994-1.695-2.492-2.991a1,1,0,0,0-.5-.4c-.1.3-.3.7-.2.9a6,6,0,0,0,.9,1.3c.6.8,1.3,1.5,1.794,2.293.1.1,0,.5-.1.6s-.5.2-.6.1c-1.2-1.3-2.393-2.592-3.489-3.988-.4-.5.2-1.4.9-1.6.2-.1.5-.2.5-.3V19.04c0-.1-.2-.2-.4-.2-.3-.1-.7-.1-.3-.5a3.9,3.9,0,0,1,.5-.4c1.3,1.2,2.094-.3,2.891-.7,1.994-.9,1.894-1,3.689,0,.6.4.9.6.8,1.3a1.132,1.132,0,0,0,.3.8c.3.2.7.4.9.3.3-.1.9-.4.3-1a1.273,1.273,0,0,1-.4-1.1,3.222,3.222,0,0,1,1.2-1.1c.2-.1,1,.2,1,.2-.1.9.9.6,1.3,1.1.3.5,1,.6,1.4,1.1.5.5,1.2.9,1.2,1.894,0,.5.4.9.7,1.4a6.084,6.084,0,0,1,.7,4.287h-.9c-.1-.4-.1-.5-.2-.6a6.259,6.259,0,0,1-1.1-1.2c-.4-.5-.6-.1-.8.1-.3.3-.4.7,0,.9a4.742,4.742,0,0,0,1.794.5c-.1,1.4-1,2.293-3.29,1.6-1.3-.6-1.894-.5-2.193-.2a1.646,1.646,0,0,1-1.5.5,4.8,4.8,0,0,0-1.2,0c-.2,0-.4.3-.6.5.2.1.4.4.7.4.5.1,1.2-.1,1.6.2.5.3.6.2.9-.1.9-1.1.9-1.1,2.293-.7.3.1.6.1.9.2-.1-.3-.1-.8-.4-1-.3-.3-.8-.4-.5.2.9,1.1.6,1.794,1.2,1.695.9-.2,1.794-1,2.692,0,.2-.3.5-.6.7-.9.3,1.6-.6,3.09-.5,4.685a2.262,2.262,0,0,1-.1.4c-1.3,0-.4,1.5-1.3,1.794a1.944,1.944,0,0,1-1.3.1c-.4-.2,0-.6.1-.9a10.985,10.985,0,0,0,.2-1.794c.8-.2,1-.7,1.1-1.994,0-.2-.1,0-.1.1v.4a2.179,2.179,0,0,0,.5-.3c.1-.2-.1-.4-.3-.2-.9.8-1.2,1.3-1.1,1.994a1.28,1.28,0,0,0-.9,1.6c.1.6-.2.8-.8.8-.9,0-1.794.6-2.592-.3a2.261,2.261,0,0,1-.4.1c.4,1.3-1,1.1-1.4,1.695-.3.4-.3.5-.1,1.1a12.1,12.1,0,0,1,.9,3.389c.1.3-.3.7-.5,1a6.638,6.638,0,0,0-.7-.3c-.2-.1-.5,0-.7,0a.756.756,0,0,0-.4.2l.3.3c.2.1.3.3.6.4.4.1,1.1-.3,1,.5,0,.2-.6.3-.8.6a1.125,1.125,0,0,0,.1.8,8.706,8.706,0,0,0,3.689.6c.2,0,.6-.1.6,0,.4.6,1,.4,1.5.4s1.4.3.6-.8c.2-.1.5-.1.6-.2.5-.4,1-.9,1.5-1.3.7.8-.4,1.4-.3,2.094.1.5-.2.7-.7.7-.9,0-1.794-.2-2.293.8-.7-.5-1.6.7-2.293-.1-.1-.1-.4,0-.4,0-.3,1.3-1.4.8-1.794.6-1.4-.7-2.791-.3-4.087-.4a9.275,9.275,0,0,1-2.393-.5c-.5-.2-.8-.9-1.2-1.4a1,1,0,0,0,.5-.4c.2-.7.6-1.2,2.094-.6.8.5,1,.5,1.1.5.4-.1,1.1.3,1.1-.4,0-1-.8-.4-1.2-.5a2.71,2.71,0,0,0-.9,0c-.3,0-.8-.3-.7.5.1.6.5.5.8.5.2,0,.3,0-.2-.5-.6-.8-.6-1.2-.5-1.3.3-.3.2-.5-.1-.7-.2-.2-.4-.4-.7,0a4.726,4.726,0,0,1-1,1c-.3.3-1,0-1.1-.4,0-.2.2-.4.3-.7.2-.4,1.1,0,.9-.8-.2-.6-.5-1.2-.7-1.794,0,0-.5,0-.6.2-.2.2-.2.5-.4.8a1,1,0,0,1-.5.4c-.1-.2-.1-.4-.2-.6a1.478,1.478,0,0,1-.1-.7c-.1.2-.3.4-.3.6-.1.6.3,1.4-.8,1.2-.6-.1-.6.3-.6.7,0,.1-.4.2-.6.2-.1,0-.3-.5-.3-.5.8-.6-.1-1.2,0-1.794,0-.8.6-.6,1.2-.4.2.1.1-.1,0-.2l-.2.2c.1.2.2.5.3.7.1-.1.1-.2,0-.7-.4-1,0-1.695-.7-2.393-.3-.3.3-.9,1-.9.2,0,.4-.3.7-.3.2,0,.4.2.7.3a2.71,2.71,0,0,0,0-.9c-.1-.8.6-1.1,1-1.5.2-.2.5-.1.8-.2.1.3.1.6.2.9l-.6.3a.934.934,0,0,0-.3,1.4c.4.6.7-.1,1.1-.3.3-.1.8,0,2.592,1.894,1.3,1.5.9,1.1,1,.7.2-1.4-1.1-1.794-1.695-2.592-.1-.1-.5.1-.7.2-.3.2-.6.6-.9.7-.7.2-.7.5-.3,1l.3.6c.6,1.1,1.2,1.1,1.894.1v-.2c.1-.9.4-.3.7-.1.5.4.4.8-.1,1.1a1.34,1.34,0,0,0-.6,1.4c0,.1.4.4.5.3.5-.4,1-.9,0-3.29-1.4-2.592-1.5-2.991-2.293-2.891-.2,0-.4-.3-.6-.5.9-.2.5-.8.4-1.3a14.757,14.757,0,0,0-.8-1.3c-.1-.3.3-.7.5-1,0-.1.3,0,.4.1s0,.4.1.4c-.2.6.1.8,3.09,2.991C33.5,36.387,33.4,36.287,33.3,36.287c-1.695-.7-2.492-2.293-3.788-3.389a3.029,3.029,0,0,0-.7-.5.453.453,0,0,0-.5,0,.445.445,0,0,0,0,.5,1.272,1.272,0,0,0,.5.7A5.326,5.326,0,0,1,31.2,35.888a1.914,1.914,0,0,0,1.994.8C33.3,36.686,33.4,36.486,30.9,34.393Zm5.981-9.67h2.094c.1,0,.2-.2.2-.3a2.008,2.008,0,0,0-.2-.6H34.692c-.1,0-.2.2-.2.3,0,.2.1.6.2.6A16.084,16.084,0,0,0,36.885,24.723ZM24.922,37.683a4.73,4.73,0,0,0,0,1.2c0,.1.4.2.6.2.1,0,.3-.1.3-.2a4.8,4.8,0,0,0,0-1.2c0-.2-.4-.3-.6-.5C25.121,37.384,24.922,37.583,24.922,37.683Zm-1.4.4v.7c0,.1.2.1.3.2a5.954,5.954,0,0,0,.6-1.1c.1-.2-.2-.5-.3-.7-.1-.1-.5.1-.6.2C23.427,37.583,23.526,37.882,23.526,38.081Zm8.175-.7c-.2-.4-.2-.5-.3-.6-.1.1-.3.3-.3.4s.1.3.1.4A1.684,1.684,0,0,1,31.7,37.384Zm1.2,7.377v-.4h-.6v.3C32.4,44.761,32.6,44.761,32.9,44.761Zm-.9-3.29c0-.3.1-.5.1-.7,0-.1-.2-.1-.3-.2a1.264,1.264,0,0,0-.1.6C31.6,41.271,31.8,41.271,32,41.471Z"
          transform="translate(-11.938 -12)"></path>
    <path d="M22.031,46.256c-.4-1.6,1.3-2.393,1.6-3.689,0-.1.6-.1.8,0,.6.4,1.2.9,1.894,1.3.8.5.8.8.2,1.6-.7.8-.6,1.695.3,1.695,1.1-.1,1.4,1.3,2.492,1.1a2.915,2.915,0,0,1,2.393.4c1.4-.6,2.492,0,3.788.4.5.2,1.1-.3,1.695-.4.3-.1.5-.3.8-.3h1.3c-.6.2-.1,1.3-1,1.2h-.5c-.6.2-.4.7-.3,1,.2.9.5.1.7,0,.3-.1.8-.5,1-.4.4.2,1,.6.7-.2a1.191,1.191,0,0,1,.5-1.695c1-.6,2.293-.9,2.592-2.293,0-.1.3-.1.4-.1a1,1,0,0,1,.4.5l-.4,2.094a1.478,1.478,0,0,1-1.1,1.3c-.4.1-.6.6-.9.9-.4.5-.4.5-1.695.5a1.132,1.132,0,0,0-.8.3c-.6.6-1.1.9-1.994.3a1.971,1.971,0,0,0-2.592,0c-.4.4-.7.2-1.2.1-1.2-.3-2.492-.9-3.788-.7a3.312,3.312,0,0,1-2.692-.9c-.5-.5-.9-1.1-1.894-1.1-.7,0-1.6-.8-2.193-1.4A1.735,1.735,0,0,1,22.031,46.256ZM41.57,48.848c-.1-.1-.1-.2-.2-.3-.1.1-.2.1-.1.2,0,.1.1.2.1.3Z"
          transform="translate(-11.938 -12)"></path>
    <path d="M20.037,20.635c.1-1.4.3-3.29.5-5.184.2-1.695,1.6-2.393,2.791-2.991,1.794-.9,3.489-.2,4.685,1.4.1.2.2.7.1.8-.6.5-.2,1.2-.3,1.794a1.417,1.417,0,0,1-.2.6c-.2-.1-.3-.3-.5-.4a12.406,12.406,0,0,1-1.994-1c-.6-.5-1.1-1.1-1.695-1.695a.892.892,0,0,0-1.4.1,2.179,2.179,0,0,0-.3.5.6.6,0,0,0,.4.1c.3.1.8.1.8.2a2.039,2.039,0,0,1,0,1.1c-.9,1-.8,2.293-.8,3.489a17.41,17.41,0,0,0,1.5,8.673,3.307,3.307,0,0,1,0,2.193c-.1.3,0,.5.5.3,1.3-.6,2.094-1.4,1.894-2.991a4.635,4.635,0,0,1,.3-1.994c.1-.2.8,1.2.6,2.293a12.7,12.7,0,0,1-1.1,3.788,14.8,14.8,0,0,1-2.094,3.389c-.5.5-.6.3-.7,0a4,4,0,0,1-.3-1.5,10.3,10.3,0,0,0-1.2-5.682,1.972,1.972,0,0,1-.2-1.1c-.1-.4.1-.9-.1-1.1C19.738,24.424,20.236,22.729,20.037,20.635Z"
          transform="translate(-11.938 -12)"></path>
    <path d="M39.178,39.577c.2.9-.3,2.094.4,3.19.4.7-.3,1.4-1.2,1.5h-1.2c-1.3,0-1.794-.5-1.794-1.894,0-1.2.1-2.393,0-3.589-.2-1.6,0-1.794,1-2.492.8-.5.9.4,1.4.3.4,0,1.1-.1,1.3.2s.1.9.1,1.4Z"
          transform="translate(-11.938 -12)"></path>
    <path d="M39.975,39.278a17.179,17.179,0,0,1,.7-2.094c.1-.3.2-.6.3-1,.5.3,1,.7,1.5,1v.3c-.4.9-.8,1.894-1.2,2.791a2.643,2.643,0,0,1-.5.6c-.2-.2-.4-.4-.4-.6a2.71,2.71,0,0,1,0-.9C40.075,39.377,40.075,39.377,39.975,39.278Z"
          transform="translate(-11.938 -12)"></path>
    <path d="M39.178,16.149a7.731,7.731,0,0,1-3.19-2.991s.2-.3.3-.3c.4.1.8.1,1,.3.7.8,1.3,1.695,1.894,2.492.1.2,0,.4,0,.5Z"
          transform="translate(-11.938 -12)"></path>
    <path d="M30.6,14.754h.7c.1,0,.2.2.3.3,0,0-.1.2-.2.2-.9,0-1.1.7-1.6,1.2-.4.3-.5.1-.7-.1-.3-.3-.5-.5-.2-1C29.308,14.654,30.006,14.754,30.6,14.754Z"
          transform="translate(-11.938 -12)"></path>
    <path d="M34.293,15.152c-.3-.1-.5-.3-.8-.4s-.8.2-.9-.4c-.1-.5.6-1.1,1.2-1,.4.1,1,.4,1.1.7C34.891,14.455,34.492,14.853,34.293,15.152Z"
          transform="translate(-11.938 -12)"></path>
    <path d="M43.066,26.218c.3.1.8.1.8.2a7.365,7.365,0,0,1,0,2.094c0,.1-.5.1-.8.2Z"
          transform="translate(-11.938 -12)"></path>
    <path d="M41.471,41.471c.1.2.2.3.1.4-.2.6-.4,1.2-.7,1.894-.2-.1-.5-.3-.5-.5a1.9,1.9,0,0,1,.7-1.695A.6.6,0,0,0,41.471,41.471Z"
          transform="translate(-11.938 -12)"></path>
    <path d="M36.187,15.451c-.4.5-.7.8-.9,1.1a3.439,3.439,0,0,1-.8-.9c0-.1.1-.4.2-.4A12.5,12.5,0,0,1,36.187,15.451Z"
          transform="translate(-11.938 -12)"></path>
    <path d="M39.676,16.448c-.1.1-.1.2-.2.1s-.2-.1-.3-.2l.2-.2Z" transform="translate(-11.938 -12)"></path>
</svg>