<svg class="svg-piece-icon align-self-center" id="svg-holster" data-name="Layer 1" xmlns="http://www.w3.org/2000/svg" viewBox="0 0 40.124 40.065"><path d="M32.372,36.83c0,2.4-.12,4.8,0,7.2.12,1.8.84,3.479.6,5.4-.12,2.039-1.439,3-3.479,2.4a3.453,3.453,0,0,0-1.559-.12c-.72,0-.84-.24-.96-.96-.12-1.319-.36-2.639-.6-3.958,0-.12-.36-.36-.48-.36-.24,0-.72.12-.72.36a4.838,4.838,0,0,0,0,1.319c0,.48-.12,1.439-.24,1.439-.84.12-1.679.48-2.4-.24s-1.439-1.2-1.319-2.4q.18-3.778,0-7.557c0-.84.36-1.8-.6-2.4-.12,0,.24-.96.36-.96.6.12,1.439-.48,1.559.6v.6c0,1.439-.12,2.879,0,4.318a19.543,19.543,0,0,0,1.319,3.718c.12.24.24.36.24.6.12-.12.36-.24.36-.48,0-.84.36-2.039-.12-2.519-1.319-1.439.36-3.239-1.08-4.558-.12-.12.24-.96.6-1.319a1.674,1.674,0,0,1,1.08-.36c.96,0,1.8,0,1.559-1.319a.986.986,0,0,1,.48-.72c1.919-1.919,2.039-1.919,2.759-4.678a2.58,2.58,0,0,1,1.2-1.679,1.012,1.012,0,0,1,1.439.96C32.372,31.552,32.372,34.191,32.372,36.83Zm-4.678.36v-.36a1.725,1.725,0,0,0-.36-.24,20.35,20.35,0,0,0-1.679,1.2c-.12.12-.36.24-.48.36.24.12.6.24.84.36A1.56,1.56,0,0,0,27.694,37.19Zm3.958,6.357v-.96a2.54,2.54,0,0,0-.36-.84c-.12.24-.24.6-.36.84v1.919c0,.12.24.36.36.48.12-.12.24-.36.36-.48C31.772,44.267,31.652,43.907,31.652,43.547Zm-.6-11.875v-.96a2.54,2.54,0,0,0-.36-.84c-.12.24-.24.6-.36.84v1.919c0,.12.24.36.36.48.12-.12.24-.36.36-.48Zm-4.8,9.476c-.24.12-.48.24-.48.36a2.224,2.224,0,0,0,.24.84c.12-.12.36-.12.36-.24A2.641,2.641,0,0,0,26.254,41.148Zm2.039.36c-.12-.12-.12-.24-.24-.48-.12.12-.24.12-.24.24s.12.24.24.48C28.174,41.748,28.174,41.628,28.294,41.508Zm-2.159,2.279c-.12.12-.24.12-.24.24s.12.24.24.48c.12-.12.24-.12.24-.24C26.254,44.027,26.135,43.907,26.135,43.787Zm.24,1.559-.24-.24c-.12.12-.12.24-.24.48l.24.24A.623.623,0,0,1,26.374,45.346Zm4.318-10.8c-.12.12-.24.12-.24.24s.12.24.24.48c.12-.12.24-.12.24-.24A.623.623,0,0,0,30.693,34.551Zm.72,6c-.12.12-.24.12-.48.24.12.12.12.24.24.24s.24-.12.48-.24C31.652,40.668,31.532,40.668,31.412,40.548Z" transform="translate(-11.938 -12)"></path><path d="M38.849,47.745c-.12.84-.36,1.8-.48,2.639-.24,1.439-.84,1.679-2.039.84-.6-.36-.96-1.2-1.679-.24-.12.12-.72-.12-.84-.24a.985.985,0,0,1,.12-.84c.84-.6.6-1.319.6-2.279,0-2.639-.48-5.158-.72-7.677a2.54,2.54,0,0,1,.36-.84c.12.24.12.6.36.84.12.12.6.24.6.12.24-.36.24-.72.48-1.08.48-.72.36-1.2-.6-1.2-.36,0-1.08-.12-1.08-.36-.36-1.679-.48-3.359-.72-5.038,0-.12.24-.36.24-.48a1.656,1.656,0,0,1,.36.48A23.984,23.984,0,0,0,36.09,35.03c.12.12.6-.24.96-.36a2.163,2.163,0,0,0,.24,1.2,1.446,1.446,0,0,0,.6.6c.24,0,.72-.24.72-.48-.12-1.439.12-1.919,1.319-.6.12.12.48.12.72.12.12-1.559.72-.84,1.679-.48,1.08.36,1.08.84,1.08,1.559v.96a7.02,7.02,0,0,0-.24,1.559,5.687,5.687,0,0,0-1.2-1.2c0-.24.24-.48.24-.72a1.02,1.02,0,0,0-.36-.6l-.84.84a2.245,2.245,0,0,0,1.08.48c.36,1.439-.12,3,.84,4.438.24.36.72,1.679-2.279,2.039-1.679.36-1.559.72-1.559.96.36-.12.6-.24.96-.36.12,0,.12-.12.24-.24.36-.12.72-.36,1.08-.48s.6-.24.96-.36c-.24-.12-.6-.24-.84-.36-.48-.12-1.2.24-1.08-.72,0-.24.6-.36.84-.6.12-.12.12-.36.24-.6-1.439.12-.96-.96-1.08-1.8V37.549c0-.24-.36-.36-.48-.6-.24.24-.6.48-.72.72a4.838,4.838,0,0,0,0,1.319v2.879c0,.84.84,1.559,1.679,2.4,1.679.12,1.679.36,1.679.6-.96,2.879-.96,2.879-3.718,2.879h.12c-.12-.12-.12-.36-.24-.48a1.208,1.208,0,0,1-.36.12A1.657,1.657,0,0,0,38.849,47.745Z" transform="translate(-11.938 -12)"></path><path d="M37.29,19.677c-1.919,1.319-2.519.24-3.359-.48-.12-.12,0-.36,0-.48.6-1.8.6-1.8-.12-4.318-.12-.36-.24-.96,0-1.2.36-.36.48-1.679,1.559-.6a1.375,1.375,0,0,0,1.2.12c1.08-.12,1.2.48,1.2,1.319a16.322,16.322,0,0,0,.48,4.8c.36,1.559.48,1.919-.96.84.36-1.319.24-1.679.12-1.679a8.265,8.265,0,0,0-.96.36c.24.24.36.72.6.84C37.05,19.317,37.53,19.077,37.29,19.677Z" transform="translate(-11.938 -12)"></path><path d="M36.21,25.314H34.891a.838.838,0,0,1-.48-.24c0-.72-.12-1.679.24-2.159.48-.72,1.08-1.8,2.279-1.559.96.24,2.159,1.679,2.039,2.519-.12.96-.84,1.439-2.039,1.439Z" transform="translate(-11.938 -12)"></path><path d="M34.291,28.793V27.474c0-.72.24-.96.96-.84h.36c.72.24,1.8-.48,1.919.48.12,1.559-1.319.48-1.919.84-.24.12-.72.6-.6.84.24.84.48.12.84,0a5.193,5.193,0,0,1,1.919-.12c.24,0,.48.36.48.6a.986.986,0,0,1-.48.72,14.456,14.456,0,0,1-2.279,0c-.12,0-.36.48-.24.48.36.36.6.72-.12.72-.24,0-.72-.24-.72-.48A9.7,9.7,0,0,1,34.291,28.793Z" transform="translate(-11.938 -12)"></path><path d="M26.374,14.879V13.439A1.628,1.628,0,0,1,28.174,12c1.08,0,.72.72.84,1.319s.96,1.08,0,1.8c-.24.12-.24.6-.36.84-.36-.12-.6-.24-.96-.36-.12.24-.12.6-.24.84-.24-.12-.6-.12-.72-.36A7.452,7.452,0,0,0,26.374,14.879Z" transform="translate(-11.938 -12)"></path><path d="M29.373,18c-.72,1.2-1.2,2.159-1.8,3.119,0,0-.36,0-.48-.12a9.4,9.4,0,0,1-1.8-1.2c-.24-.24-.24-.84-.24-1.2a.844.844,0,0,1,.48-.6c.96-.12,1.919.12,2.759-.6C28.414,17.278,28.893,17.638,29.373,18Z" transform="translate(-11.938 -12)"></path><path d="M24.455,23.4v-.6c.12-.24.24-.6.48-.72a3.719,3.719,0,0,1,.84.24c0,1.08.24,1.2.96.48.12-.12.96.24.96.36a9.992,9.992,0,0,1-.48,1.8c-.48.96-.84-.12-1.2-.24C24.455,24.115,24.455,24.115,24.455,23.4Z" transform="translate(-11.938 -12)"></path><path d="M25.295,29.273c-1.2,0-2.4-1.559-2.159-2.279a.742.742,0,0,1,.84-.24c.24,0,.6.36.72.6a13.083,13.083,0,0,1,.72,1.319l.36-1.439c0-.24.24-.36.36-.48l.48.48c.72.84.72,1.319-.12,1.8A10.391,10.391,0,0,0,25.295,29.273Z" transform="translate(-11.938 -12)"></path><path d="M28.174,31.192c-.6.36-.84.6-1.2.6-.84.12-2.039-.36-2.159,1.2a1.894,1.894,0,0,1-.84,0c-.48-.36.48-2.519.96-2.279.96.6,1.439-.84,2.279-.24C27.334,30.712,27.574,30.832,28.174,31.192Z" transform="translate(-11.938 -12)"></path><path d="M37.89,32.751c-.36.48-.6,1.08-.72,1.08a16.993,16.993,0,0,1-2.159-.96c.48-.48.96-1.319,1.8-.96C37.17,32.032,37.41,32.392,37.89,32.751Z" transform="translate(-11.938 -12)"></path></svg>