<svg class="svg-set-icon align-self-start" id="svg-final" data-name="Layer 1" xmlns="http://www.w3.org/2000/svg" viewBox="0 0 40.124 40.065"><path d="M49.918,23.482l-6.26,5.738c2.434,3.13,4.7,6.26,7.129,9.39C48.179,46.436,40.528,51.826,31.834,52c-8,0-15.824-5.391-18.432-12.868,2.261-3.13,4.521-6.26,6.956-9.564C18.27,27.655,16.183,25.917,13.923,24c3.652-7.477,9.564-11.824,17.737-12S45.919,15.831,49.918,23.482ZM40.006,47.827c-2.087-2.782-4.173-5.217-5.738-7.3.348-2.434.522-4.521.869-6.956.348-.174.869-.522,1.565-.869,1.565,4.869,5.391,7.825,8.173,12.172,1.565-2.261,2.782-4,3.826-5.738-2.782-3.478-5.391-6.782-8-10.086,2.261-2.087,4.347-4.173,6.608-6.26-4.173-5.738-9.564-8.694-16.693-8.173-6.086.348-10.607,3.3-14.085,8.521,2.434,2.087,4.521,4,6.782,6.086L15.488,39.654c1.217,1.739,2.608,3.478,4,5.391,2.608-3.478,4.869-6.608,6.956-9.564.348-1.043.522-1.739.869-2.782.869.522,1.391.869,2.087,1.217a.607.607,0,0,0-.348.174c.348,2.087.7,4,1.043,6.434-1.565,2.087-3.478,4.7-5.564,7.3A19.912,19.912,0,0,0,40.006,47.827Z" transform="translate(-11.938 -12)"></path><path d="M51.135,34.263c-.869-1.217-1.739-2.434-2.782-3.826.869-.7,1.565-1.391,2.434-2.087C52.352,30.09,52,32,51.831,33.916A.9.9,0,0,0,51.135,34.263Z" transform="translate(-11.938 -12)"></path><path d="M13.227,28.7a23.378,23.378,0,0,1,2.434,1.913C14.618,32,14.1,33.568,12.706,34.437c-.174,0-.348-.174-.7-.174.174-1.739.174-3.478.348-5.391A1.568,1.568,0,0,0,13.227,28.7Z" transform="translate(-11.938 -12)"></path><path d="M32.007,31.481a12.682,12.682,0,0,1-1.913,1.565c-3.652-2.956-4.521-6.608-1.739-10.607a16.736,16.736,0,0,0,1.217-3.13,5.876,5.876,0,0,1,1.043-2.087c.348,1.913,1.043,3.826,0,5.564a3.587,3.587,0,0,0-.348,3.478,13.953,13.953,0,0,1,.7,3.13h2.087c-.348-2.434,2.261-4.869-.348-7.129V17.222c.174,0,.174,0,.348-.174.869,1.913,1.739,3.652,2.608,5.564.7,1.913,1.217,3.826,1.913,5.564-1.391,1.913-2.261,3.3-3.3,4.7A9.86,9.86,0,0,1,32.007,31.481Z" transform="translate(-11.938 -12)"></path><path d="M32.181,39.48c-2.608-1.739-2.608-3.478-.174-5.217C34.442,35.481,34.616,37.567,32.181,39.48Zm-1.391-3.3c1.391,1.913,1.565,1.913,2.434,0Z" transform="translate(-11.938 -12)"></path></svg>