<svg class="svg-set-icon align-self-start" id="svg-striker" data-name="Layer 1" xmlns="http://www.w3.org/2000/svg"
     viewBox="0 0 40.124 40.065">
    <path d="M20.843,30.374c2.054-2.4,2.568-4.793.171-7.19.856-1.37,1.541-2.739,2.226-3.937,4.451-1.027,4.451-1.027,6.848-4.109h4.451c1.2,2.4,3.081,4.451,6.505,3.6.856,1.37,1.541,2.739,2.4,4.109-2.054,2.4-2.054,4.793.171,7.19-.685,1.37-1.37,2.568-2.226,3.937-3.081-.171-5.649.514-6.334,3.937H29.916c-1.37-2.4-2.568-4.965-6.334-3.6C22.726,33.113,21.87,31.914,20.843,30.374Zm19.516-10.1H37.106c-.514,1.027-1.027,1.883-1.541,2.739a15.3,15.3,0,0,1,1.541,2.739h3.253c.514-1.027,1.027-1.883,1.541-2.739A12.975,12.975,0,0,0,40.359,20.273ZM24.1,20.1a23.973,23.973,0,0,1-1.712,2.739c.685,1.027,1.2,1.883,1.712,2.739h3.081a23.973,23.973,0,0,1,1.712-2.739c-.685-1.027-1.2-1.883-1.712-2.739Zm13.182,7.533c-.514.856-1.027,1.883-1.541,2.739.685,1.027,1.2,1.883,1.712,2.739H40.53c.514-.856,1.027-1.712,1.712-2.739-.514-1.027-1.2-1.883-1.712-2.739ZM24.1,33.113c1.2,0,2.226-.171,3.253-.171.514-1.027,1.027-1.883,1.541-2.739-.514-1.027-1.2-1.883-1.712-2.739H23.924c-.514,1.027-1.027,1.883-1.541,2.739A25.77,25.77,0,0,0,24.1,33.113ZM29.06,19.075c.514.856,1.027,1.883,1.541,2.568h3.424c.514-.856,1.027-1.883,1.541-2.739-.514-1.027-1.027-1.883-1.541-2.739H30.772C30.087,17.192,29.745,18.048,29.06,19.075Zm1.37,17.8h3.424c.514-1.027,1.027-1.883,1.541-2.739a25.126,25.126,0,0,1-1.541-2.568H30.6c-.514.856-1.027,1.883-1.541,2.739A18.71,18.71,0,0,1,30.43,36.879ZM28.889,26.607c.685,1.027,1.2,1.883,1.712,2.739h3.253c.514-.856,1.027-1.883,1.541-2.739a16.912,16.912,0,0,0-1.541-2.568H30.6C30.087,24.9,29.574,25.58,28.889,26.607Z"
          transform="translate(-11.938 -12)"></path>
    <path d="M38.133,44.24,51.486,18.561h.342c0,.342.171.856.171,1.2A83.437,83.437,0,0,1,51.658,29,14.953,14.953,0,0,1,50.8,32.77a11.742,11.742,0,0,1-5.821,7.019c-2.4,1.37-4.451,3.081-6.677,4.622A.168.168,0,0,1,38.133,44.24Z"
          transform="translate(-11.938 -12)"></path>
    <path d="M25.465,44.583c-3.253-2.226-6.848-4.28-9.587-7.019a12.563,12.563,0,0,1-3.6-7.19c-.514-3.766-.171-7.875-.171-12.155,4.622,8.9,9.244,17.462,13.7,26.021C25.807,44.412,25.636,44.412,25.465,44.583Z"
          transform="translate(-11.938 -12)"></path>
    <path d="M25.807,16.507H16.049c1.2,2.4,2.4,4.622,3.6,6.848-.171,0-.171.171-.342.171-1.541-2.568-2.91-4.965-4.451-7.533H25.979A.629.629,0,0,0,25.807,16.507Z"
          transform="translate(-11.938 -12)"></path>
    <path d="M38.647,15.993h11.3c-1.027,1.541-1.883,3.253-2.91,4.965-.171,0-.171-.171-.342-.171.685-1.37,1.37-2.568,2.054-4.109H38.818A1.294,1.294,0,0,1,38.647,15.993Z"
          transform="translate(-11.938 -12)"></path>
    <path d="M34.025,45.439l-1.712,3.424c-1.541-2.91-2.91-5.649-4.28-8.389.171,0,.171-.171.342-.171,1.2,2.226,2.4,4.451,3.766,7.019.514-.856,1.027-1.541,1.37-2.226C33.853,45.268,34.025,45.268,34.025,45.439Z"
          transform="translate(-11.938 -12)"></path>
    <path d="M34.2,26.779c-.514.685-.685,1.2-1.027,1.541H31.286l-1.027-1.541c.342-.514.685-1.2,1.027-1.712H33.34A15.833,15.833,0,0,0,34.2,26.779Z"
          transform="translate(-11.938 -12)"></path>
</svg>