<svg class="svg-set-icon align-self-start" id="svg-tacticians" data-name="Layer 1" xmlns="http://www.w3.org/2000/svg" viewBox="0 0 40.124 40.065"><path d="M52,32.8v4.622H32.876V32.8Z" transform="translate(-11.938 -12)"></path><path d="M32.876,18.135H52v4.622H32.876Z" transform="translate(-11.938 -12)"></path><path d="M32.876,25.307H52v4.462H32.876Z" transform="translate(-11.938 -12)"></path><path d="M16.143,37.259H12V18.135h4.143Z" transform="translate(-11.938 -12)"></path><path d="M29.689,37.259H25.546V18.135h4.143Z" transform="translate(-11.938 -12)"></path><path d="M18.534,18.135h4.143V37.259H18.534Z" transform="translate(-11.938 -12)"></path><path d="M31.92,39.331c.478.956.637,1.594.956,2.231.8,0,1.434.159,2.39.159-.8.637-1.275,1.116-1.912,1.594a18.024,18.024,0,0,0,.637,2.39,23.312,23.312,0,0,1-2.072-1.434c-.637.319-1.275.8-2.072,1.275a10.484,10.484,0,0,1,.637-2.39c-.478-.478-1.116-.956-1.753-1.594a12.883,12.883,0,0,1,2.39-.159A5.776,5.776,0,0,1,31.92,39.331Z" transform="translate(-11.938 -12)"></path><path d="M20.287,41.721c.956,0,1.594-.159,2.39-.159.319-.637.478-1.275.956-2.39.319.8.637,1.434.956,2.231.637,0,1.434.159,2.39.159a16.88,16.88,0,0,1-1.912,1.594c.159.637.319,1.434.637,2.39-.956-.637-1.594-.956-2.231-1.434-.637.319-1.116.8-2.072,1.275.159-.956.319-1.594.478-2.39A6.456,6.456,0,0,1,20.287,41.721Z" transform="translate(-11.938 -12)"></path><path d="M46.263,45.705c.319-1.116.319-1.753.478-2.39-.637-.478-1.116-.956-1.753-1.434a12.883,12.883,0,0,1,2.39-.159,15.538,15.538,0,0,0,.956-2.231,15.54,15.54,0,0,0,.956,2.231c.637,0,1.434.159,2.231.159a15.87,15.87,0,0,1-1.753,1.594c.159.637.319,1.275.637,2.39a23.59,23.59,0,0,1-2.072-1.275C47.857,44.749,47.219,45.227,46.263,45.705Z" transform="translate(-11.938 -12)"></path><path d="M40.845,41.562a11.29,11.29,0,0,1,2.231.159c-.637.637-1.275,1.116-1.753,1.594.159.637.319,1.275.637,2.231a23.591,23.591,0,0,1-2.072-1.275c-.637.319-1.275.8-2.231,1.275a18.026,18.026,0,0,0,.637-2.39c-.478-.478-1.116-.956-1.753-1.594.956,0,1.434-.159,2.231-.159a15.539,15.539,0,0,0,.956-2.231C40.207,40.287,40.526,40.924,40.845,41.562Z" transform="translate(-11.938 -12)"></path><path d="M16.94,43.315c.159.637.319,1.275.637,2.39-.956-.478-1.434-.956-2.231-1.434-.637.478-1.275.8-2.072,1.434a18.026,18.026,0,0,0,.637-2.39c-.478-.478-1.116-.956-1.753-1.594.956,0,1.594-.159,2.39-.159a15.539,15.539,0,0,0,.956-2.231,15.539,15.539,0,0,0,.956,2.231c.637,0,1.275.159,2.39.159C18.056,42.359,17.578,42.837,16.94,43.315Z" transform="translate(-11.938 -12)"></path></svg>