<svg class="svg-set-icon align-self-start" id="svg-frontline" data-name="Layer 1" xmlns="http://www.w3.org/2000/svg"
     viewBox="0 0 40.124 40.065">
    <polygon
            points="17.675 18.675 17.675 37.35 19.941 40 22.427 37.207 22.427 19.25 20.596 19.25 20.596 36.01 19.59 36.01 19.59 18.675 17.675 18.675"></polygon>
    <path d="M39.477,33.133V26.689H34.366V23.716H39l-.335-2.187h-5.65V15.2h.91v-.8L31.879,12l-2.027,2.394-.048.8h.814v6.333H25.176l-.447,2.187h4.884v2.973H24.489V41.641L28.895,44.9V41.258l-1.772-.67V37.822h1.484V32.938h-1.58V29.574h9.864v2.3l-1.468,1.065.048,4.884h1.564v2.047l-.527.718v4.166l1.386-1.342,1.583-1.532V34.889L38.352,34.6v-.623Zm-6.943-6.672H31.528V23.923h1.006Z"
          transform="translate(-11.938 -12)"></path>
    <path d="M43.484,37.4l.841-.841c.57-2.263,1.91-7.543,3.83-9.953a30.231,30.231,0,0,0-3.161-2.972A93.963,93.963,0,0,0,43.484,37.4Z"
          transform="translate(-11.938 -12)"></path>
    <path d="M45.6,35.275l5.127-5.127a17.032,17.032,0,0,0-2.185-3.1A34.253,34.253,0,0,0,45.6,35.275Z"
          transform="translate(-11.938 -12)"></path>
    <path d="M44.479,23.216a36.014,36.014,0,0,0-3.565-2.5V40.587L42.3,40.4l.06-.287C42.511,36.611,43.413,26.837,44.479,23.216Z"
          transform="translate(-11.938 -12)"></path>
    <path d="M20.516,37.342l-.841-.841c-.57-2.263-1.91-7.543-3.83-9.953a30.231,30.231,0,0,1,3.161-2.972A93.963,93.963,0,0,1,20.516,37.342Z"
          transform="translate(-11.938 -12)"></path>
    <path d="M18.4,35.222,13.27,30.1a17.032,17.032,0,0,1,2.185-3.1A34.253,34.253,0,0,1,18.4,35.222Z"
          transform="translate(-11.938 -12)"></path>
    <path d="M19.521,23.162a36.014,36.014,0,0,1,3.565-2.5V40.534L21.7,40.343l-.06-.287C21.489,36.558,20.587,26.784,19.521,23.162Z"
          transform="translate(-11.938 -12)"></path>
</svg>