<svg class="svg-set-icon align-self-start" id="svg-lone" data-name="Layer 1" xmlns="http://www.w3.org/2000/svg"
     viewBox="0 0 40.124 40.065">
    <path d="M18.515,25.182H30.03V19.576H24.273a40.579,40.579,0,0,0-1.818,3.636l-3.333-1.667c1.061-1.97,1.97-3.788,2.879-5.606H42c.909,1.818,1.818,3.636,2.727,5.758-1.061.455-2.121,1.061-3.333,1.515-.606-1.212-1.364-2.424-1.97-3.636H33.818V33.667c.909,0,1.818.152,3.03.152a22.809,22.809,0,0,1-1.515,2.576c.455.758.909,1.515,1.515,2.576-1.212,0-2.121.152-3.182.152-.606.758-1.061,1.515-1.818,2.424-.606-.909-1.212-1.667-1.818-2.576H26.848c.606-1.061,1.061-1.818,1.515-2.576-.455-.758-.909-1.515-1.364-2.424,1.061-.152,1.818-.152,2.727-.3V29.273H20.485c-1.212,2.273-2.273,4.7-3.636,7.273,5,2.424,10,4.848,15,7.424l15-7.273c-1.212-2.576-2.424-5-3.636-7.576H35.788V25.485h9.848C47.758,29.727,49.879,33.97,52,38.364c-6.818,3.333-13.485,6.515-20.152,9.7C25.333,44.879,18.818,41.7,12,38.364,14.273,33.818,16.242,29.576,18.51525.182Z"
          transform="translate(-11.938 -12)"></path>
</svg>