<svg class="svg-set-icon align-self-start" id="svg-predators" data-name="Layer 1" xmlns="http://www.w3.org/2000/svg"
     viewBox="0 0 40.124 40.065">
    <path d="M26.032,26.59a30.45,30.45,0,0,0,2.9-.968c-4.032-.645-5.323-1.129-6.613-2.419h7.9a18.774,18.774,0,0,1,.968-2.419L30.71,20.3a4.656,4.656,0,0,1-5.323,1.613c-1.935-.645-3.548-1.935-5.323-2.9,0-.161.161-.484.161-.645H30.548c-.968-.806-1.935-1.613-3.065-2.419,3.226-.806,6.29.161,9.516.645a16.9,16.9,0,0,1,1.29,1.774c-.806.484-1.29.806-2.258,1.29,1.29.806,2.258,1.29,3.387,1.935a15.718,15.718,0,0,1,1.774-.806c-.323-.806-.484-1.613-.806-2.258a.158.158,0,0,0,.161-.161,16.062,16.062,0,0,1-1.774-1.613c0-.161.161-.161.161-.323.484.161.806.484,1.29.645,1.129.323,2.1.645,3.226.968a26.7,26.7,0,0,1,3.387.968,29.076,29.076,0,0,1,3.387,1.29c.645.323,1.129.806,1.774,1.129-.161.161-.161.323-.323.484-1.935-.484-3.871-.806-5.645-1.29V20.3c-.484.161-.968.161-1.452.323-.161-.323-.161-.645-.323-.968-.806.161-1.452.484-2.419.645-.161.806-.323,1.452-.484,2.258-1.452.968-6.129,1.29-7.9.484.806,2.742,3.226,3.871,5.645,2.581.968-.484,1.774-.968,2.9-1.452.645.484,1.129,1.129,2.1,1.935-3.71,1.129-5.161,3.71-5.484,7.1-.161,2.258.968,3.71,3.548,5.806.968,0,1.935-.161,3.387-.161-.484,1.29-.806,2.419-1.129,3.226a3.27,3.27,0,0,1-3.71-1.613c-1.129-2.1-2.419-4.194-3.387-6.452-.484-1.129-.161-2.581-.323-3.871-2.1,2.1-2.258,2.742-1.129,7.742-.645-.161-1.129-.161-1.613-.323.323,1.452.645,2.742.968,4.516-1.129-.323-1.774-.645-2.581-.806V44.01c-.806-.323-1.613-.645-2.581-1.129a8.283,8.283,0,0,1,.161,2.742,19.73,19.73,0,0,1-.484,2.742c-7.581-4.194-14.516-8.871-16.774-17.581A43.524,43.524,0,0,1,12,24.171c1.774-1.29,3.387-2.258,4.839-3.387a9.981,9.981,0,0,1,3.226,5.968,13.522,13.522,0,0,0,1.452,4.032,8.076,8.076,0,0,0,7.258,5h3.548c-1.774-1.452-3.387-2.9-5-4.355A5.166,5.166,0,0,1,26.032,26.59Z"
          transform="translate(-11.938 -12)"></path>
    <path d="M51.194,24.977c-5.484.484-6.129.161-6.29-2.9,1.935-1.452,3.548.323,5.161.968C50.548,23.365,50.71,24.171,51.194,24.977Z"
          transform="translate(-11.938 -12)"></path>
    <path d="M49.742,26.752c-.806,1.613-1.452,2.9-2.1,4.032-.161,0-.323-.161-.484-.161v-3.71A17.819,17.819,0,0,0,49.742,26.752Z"
          transform="translate(-11.938 -12)"></path>
    <path d="M41.194,30.945c1.452,1.452.323,3.226,1.129,5.161C40.548,34.655,40.226,33.365,41.194,30.945Z"
          transform="translate(-11.938 -12)"></path>
    <path d="M46.032,33.848c.484,2.581-.161,3.387-2.258,3.387C44.581,36.107,45.226,34.977,46.032,33.848Z"
          transform="translate(-11.938 -12)"></path>
    <path d="M43.129,27.558c.806-.161,1.452-.323,2.258-.484,0,.161.161.484.161.645-.806.161-1.452.323-2.258.484C43.29,27.881,43.129,27.719,43.129,27.558Z"
          transform="translate(-11.938 -12)"></path>
    <path d="M38.29,19.655c.484.161.968.161,1.452.323,0,.161-.161.323-.161.645-.484-.161-.968-.161-1.452-.323C38.129,20.139,38.29,19.816,38.29,19.655Z"
          transform="translate(-11.938 -12)"></path>
</svg>