<svg class="svg-piece-icon align-self-center" id="svg-mask" data-name="Layer 1" xmlns="http://www.w3.org/2000/svg"
     viewBox="0 0 40.124 40.065">
    <path d="M26.962,39.277c-.3-1.79.4-3.68,1.193-5.569a7.166,7.166,0,0,0,0-5.37c-.5-.9-.1-2.486-1.691-2.785.5-1.492-.7-2.287-1.492-3.182-.5-.5,0-1.79.8-1.989.2-.1.6.2.7.5.6,1.193,1.89,2.088,1.691,3.68,1.492,1.392,1.293,3.481,2.188,5.072s0,2.785-.1,4.177c-1.691,1.591-1.193,4.077-2.088,5.967a.873.873,0,0,0,.1.7,10.847,10.847,0,0,0,.6,1.094c.3-.3.8-.5.9-.8.3-1.094,1.293-1.691,2.088-2.387a27.4,27.4,0,0,1,2.884-1.691,4.67,4.67,0,0,0,.9-.6A7.625,7.625,0,0,1,41.78,34.5c.2,0,.5.3.7.6,1.094,2.088,2.586,3.978,3.381,6.265.2.5.8.9-.3.8-1.89-.2-3.481.995-5.171,1.293-.2,0-.4.4-.6.6.2.1.4.3.6.3a2.4,2.4,0,0,0,1.79-.4,2.438,2.438,0,0,1,1.591-.6c.7,0,1.691-.4,1.89.3.2.8.5,1.79-.4,2.486-2.685,2.387-5.271,4.873-9.05,5.271-1.392,1.293-2.287.2-3.083-.8a9.942,9.942,0,0,1-2.287-3.978c-.3-1.094-1.193-1.79-1.392-2.984,0-.2-.4-.4-.6-.6C26.962,41.764,26.962,41.764,26.962,39.277Zm7.061,9.05c.6-.4,1.094-.7,3.481-3.68.1,0,0,0-.1.1-.6.6-1.193,1.094-1.691,1.691-.1.2,0,.5,0,.8.2-.1.3-.1.5-.2.8-.7,1.293-1.79,2.586-1.492,0-.2,0-.5-.1-.5-.3-.2-.6-.2-2.984,2.188-1.591,0-1.591,0-1.492,1.591-.1-.2-.3-.3-.4-.5-.1.1-.3.3-.3.4a1.844,1.844,0,0,0,.2.7A1.77,1.77,0,0,0,34.023,48.327Zm6.564-.3v-.8a.846.846,0,0,0-.3-.5c-.1.1-.3.2-.4.4-.1.1-.4.3-.4.4a5.87,5.87,0,0,0,.2,1.392s.4.1.5,0a8.832,8.832,0,0,0,.7-2.685l-.3.3.2.2c.1-.1.2-.2.2-.3C41.084,46.338,40.984,46.239,40.586,48.029Z"
          transform="translate(-11.938 -12)"></path>
    <path d="M35.216,24.062a7.392,7.392,0,0,1,2.586-.3c.2,0,.4.2.6.3-.2.2-.3.5-.6.5a7.677,7.677,0,0,1-1.492.2c-.9,0-.6.6-.7,1.094-.3.1-.7.1-.995.2a4.21,4.21,0,0,0,.5.7c.1.1.3.1.4.2a4.211,4.211,0,0,1-.4,1.193,9.021,9.021,0,0,0-.995,4.276c0,.2,0,.5-.1.5-1.691.9-2.287,2.685-3.381,4.077-.1.1-.3.2-.4.3a.754.754,0,0,1-.2-.4c0-.7-.3-1.492.5-1.989a1.437,1.437,0,0,0,.6-1.392.7.7,0,0,1,.4-.5c1.293.3,1.193-.6,1.193-1.392a24.185,24.185,0,0,0,0-2.685c-.1-.995.2-1.591,1.293-1.392.1,0,.1-.1.2-.1-.2-.1-.5-.2-.6-.4-.1-.1-.1-.4-.1-.5a2.9,2.9,0,0,1,.2-.9.6.6,0,0,0-.4.1,12.6,12.6,0,0,0-1.691,3.083c-.1.2-.2.3-.2.5-.1-.1-.3-.2-.3-.3-.8-2.884-2.287-5.37-3.381-8.155-.3-.7-.6-.995,0-1.591,1.591-1.591,2.486-3.68,3.879-5.47,0-.1,0-.2.1-.2.3-.9.9-1.79,1.79-1.591.6.1,1.094,1.094,1.392,1.79.5,1.392.8,2.984,1.193,4.376.1.5.4.9.5,1.392.2.995.6.3.8.1.4-.4.8-.8,1.193,0s.995,1.492.8,2.387c0,.2-.4.3-.6.3-.1,0-.4-.1-.4-.2-.1-.4,0-.7-.1-1.094,0-.3-.2-.5-.4-.8-.2.4-.6.7-.7,1.094-.1.2.3.6.5.9.2.4.5.9.4,1.094-.4.5-.7.1-1.094-.2-.3-.7-.4-.6-1.79.9-.1,0-.3-.3-.4-.3a6.851,6.851,0,0,0-.8.3c.2.2.3.6.5.7S35.017,24.559,35.216,24.062Z"
          transform="translate(-11.938 -12)"></path>
    <path d="M27.558,30.725a9.182,9.182,0,0,1-.5,2.586c-.7,1.193-1.591,2.486-1.193,4.177a1.4,1.4,0,0,1-.6.8c-.1.1-.6-.1-.7-.3-1.392-1.392-2.884-2.785-4.276-4.276a8.078,8.078,0,0,1-2.188-3.779c-.6-2.287-.4-3.58,1.193-4.873a40.253,40.253,0,0,1,3.381-2.287c.5-.3,1.293-.7,1.591.6.1.7.8,1.293,1.293,1.89.3.5.9,1.094.8,1.492C25.868,28.537,28.155,29.332,27.558,30.725Z"
          transform="translate(-11.938 -12)"></path>
    <path d="M37.3,27.542c.2.1.5.2.6.4.4.5.995,1.392.9,1.591-.5.9-.3,2.188-1.392,2.685-.8.3-1.293-.4-1.989-.4-.5,0,0-.7.1-1.094.4-.995.2-2.287,1.392-2.984C37.006,27.642,37.106,27.642,37.3,27.542Z"
          transform="translate(-11.938 -12)"></path>
    <path d="M35.713,25.852c.3,0,.6-.1.8,0,.4.1,1.094-.4,1.193.4,0,.2-.8.5-1.193.7-.2.1-.5,0-.8,0Z"
          transform="translate(-11.938 -12)"></path>
    <path d="M40.487,26.249a3.366,3.366,0,0,1,.3-.8c.1.3.3.5.3.8a1.844,1.844,0,0,1-.2.7A1.6,1.6,0,0,0,40.487,26.249Z"
          transform="translate(-11.938 -12)"></path>
    <path d="M39.194,33.41a4.88,4.88,0,0,1-1.094.1,1,1,0,0,1-.1-.3c.2,0,.5-.1.7-.1C38.8,33.012,38.9,33.211,39.194,33.41Z"
          transform="translate(-11.938 -12)"></path>
    <path d="M34.023,35.2a2.174,2.174,0,0,1,.5.3c-.3.1-.5.2-.8.3-.1,0-.2-.2-.3-.2A5.889,5.889,0,0,0,34.023,35.2Z"
          transform="translate(-11.938 -12)"></path>
    <path d="M39.89,31.123c.1.5.3.7.2.9a.993.993,0,0,1-.5.4v-.5C39.592,31.719,39.691,31.62,39.89,31.123Z"
          transform="translate(-11.938 -12)"></path>
    <path d="M38.5,24.957l.2-.2c.1.1.1.2.2.4l-.2.2C38.6,25.255,38.6,25.155,38.5,24.957Z"
          transform="translate(-11.938 -12)"></path>
    <path d="M32.929,36.493l-.3.3a1,1,0,0,0-.1-.3c.1-.1.3-.1.4-.2Z" transform="translate(-11.938 -12)"></path>
    <path d="M32.929,36.294l.6-.6Z" transform="translate(-11.938 -12)"></path>
    <path d="M39.492,32.415l-.6.6A3.376,3.376,0,0,0,39.492,32.415Z" transform="translate(-11.938 -12)"></path>
</svg>