<svg class="svg-set-icon align-self-start" id="svg-reclaimer" data-name="Layer 1" xmlns="http://www.w3.org/2000/svg"
     viewBox="0 0 40.124 40.065">
    <path d="M26.405,18.731v9.808c-2.5,2.692-4.423,5-6.538,7.308a.671.671,0,0,1-.385-.192V12H44.867c-1.731,1.731-3.462,3.269-5.385,5A12.308,12.308,0,0,0,41.6,18.154c6.538,3.654,9.808,11.346,8.654,19.038A18.377,18.377,0,0,1,36.6,51.808,5.324,5.324,0,0,1,34.867,52h-20c-.192,0-.385-.192-.577-.192.769-.769,1.538-1.731,2.5-2.692,5.192,0,10.577-.192,15.962,0,5.962.192,13.462-4.615,15-12.5,1.346-7.308-2.5-14.808-9.231-17.5a10.142,10.142,0,0,0-2.308-.577C32.751,18.731,29.674,18.731,26.405,18.731Z"
          transform="translate(-11.938 -12)"></path>
    <path d="M19.482,46.423c.192-.385.192-.577.385-.769,2.308-2.115,4.423-4.231,6.731-6.346h5a5.148,5.148,0,0,0,5.385-5.385c0-2.885-2.308-5-5.385-5.192H29.1V21.615C37.174,20.077,41.982,24.5,43.905,29.5a12.872,12.872,0,0,1-6.154,15.769,8.507,8.507,0,0,1-2.885.962C30.059,46.615,24.867,46.423,19.482,46.423Z"
          transform="translate(-11.938 -12)"></path>
    <path d="M16.213,39.115c-.769.769-1.538,1.538-2.692,2.5V12h2.692Z" transform="translate(-11.938 -12)"></path>
</svg>