<svg class="svg-piece-icon align-self-center" id="svg-knee-pads" data-name="Layer 1" xmlns="http://www.w3.org/2000/svg"
     viewBox="0 0 40.124 40.065">
    <path d="M41.544,23.49c.173,0,.432.086.432,0a9.7,9.7,0,0,0,1.382-1.9,6.012,6.012,0,0,0,.173-1.382A5.547,5.547,0,0,0,44.4,21.33c.6.518.518,1.037.518,1.814-.086,2.16-.864,4.06-1.3,6.134-.173.778.086,1.814-.259,2.505a2.085,2.085,0,0,0,0,2.333.731.731,0,0,1,0,.6,4.479,4.479,0,0,0-.864,3.456c0,.173-.173.346-.259.6-.432,1.3-1.382,2.246-1.987,3.456-.086.086-.259.173-.346.259a.655.655,0,0,1-.173-.346c-.086-.6.259-1.3-.432-1.728-.6-.346-.778-1.209-1.641-1.209-1.123,0-2.333-.259-3.369.518a14.8,14.8,0,0,0-2.16,1.9c-.778.691-1.123.691-1.469-.259a1.363,1.363,0,0,0-.432-.691c-.864-.259-.691-1.9-2.419-1.469-.173-.259.518.432.432-.432-.086-.778-.691-.432-1.037-.518-.173,0-.346-.086-.432,0a2.364,2.364,0,0,0-.432.346,1.489,1.489,0,0,0,.518.518c.086.086.259,0,.95,0A25.328,25.328,0,0,1,31,43.015c.173.173.259.518.691.173a11.431,11.431,0,0,0,1.9-1.555c.691-.864,1.728-.864,2.505-1.469a1.326,1.326,0,0,1,1.382,0,2.441,2.441,0,0,1,1.123,1.555,5.562,5.562,0,0,1-.864,1.987c0,.086-.346,0-.518-.086-.259-.086-.6-.086-.864-.173-.691-.432-1.3-.6-1.987.173-.346.432-1.3.95-1.469-.346,0,0-.432-.086-.432,0-.173.173-.346.518-.259.6a1.866,1.866,0,0,0,2.419.864c.6-.259.778-.432.691.346l1.814.086c-.086-1.037,1.21-.691,1.555-1.469.086-.173.518-.173.778-.173.086.259.086.6.173.864v.432c-.432.518-.778,1.209-1.3,1.382a6.972,6.972,0,0,1-2.333.086,1.6,1.6,0,0,0-.6.173,2.4,2.4,0,0,1-3.11-.6,6.966,6.966,0,0,0-1.21-1.037c-.6-.518-1.3-.95-1.9-1.469V42.67c-1.21-.173-1.382-1.641-2.419-2.073-.432-.173-.518-.864-.864-1.209s-.518-.691,0-1.037a7.205,7.205,0,0,0-1.382-1.814c-.864-.691-.346-1.209,0-1.728,1.123.432,1.209-.778,1.3-1.123.173-1.123.518-2.419-.346-3.542a2.591,2.591,0,0,1,0-3.11c.432-.6.259-.778-.173-1.209-.259-.259-.259-.691-.346-1.037,1.555-.086,1.555-.086,1.469-1.3-.086-.691-.432-.864-.864-.432-.518.518-.6-.173-.864-.259.086-.259.173-.6.346-.6,2.073-.259,2.678-2.419,4.406-3.024.6-1.123,1.987-.95,2.851-1.814a1.306,1.306,0,0,1,2.16.95c.259,1.469,1.3,2.592,1.728,4.06.086.259.432.346.691.518.086,1.728.259,1.9,1.728,1.9h1.641c0,.6.432.6.778.346C41.717,24.959,41.544,24.181,41.544,23.49Zm-13.477,1.9h.173c-.086-.086-.086-.259-.173-.346a.87.87,0,0,1-.259.086.924.924,0,0,0,.432.259c-.346.691-.173,1.555,1.9,3.542a13.767,13.767,0,0,0-1.123-1.123h-.259c0,.173-.086.346,0,.432a4.528,4.528,0,0,0,.864.95c.086.086.259-.086.432-.086.086,0,.086-.086-1.3-1.3.086-.864.086-.95.518-.691a13.534,13.534,0,0,1,2.16,1.728c.259.173.173.691.259,1.037a3.742,3.742,0,0,0-.432.086.565.565,0,0,0-.95,0c.259.259.6.691.864.691.6,0,1.469.432,1.9-.259.346-.6-.259-1.123-.691-1.555-.173-.173-.086-.432-.259-.6C31,26.946,30.054,25.564,28.067,25.391Zm.6,11.231a9.822,9.822,0,0,0,1.382,1.3c.432.259.691,1.3,1.3.691,1.123-1.037.346,1.209,1.123.6.173-.086.518-.259.518-.346a2.052,2.052,0,0,0-.259-1.037c-.346-.6-.95-1.037-1.123-1.641-.518-1.728-2.073-1.728-3.369-2.16a1.888,1.888,0,0,0-.432.259,9.937,9.937,0,0,0,.518,1.469,1.228,1.228,0,0,1,.518-.173,1.917,1.917,0,0,1,.778.086c.173.432.086.778-.518.778C29.017,36.363,28.845,36.536,28.672,36.622Zm-1.728-.95a1.46,1.46,0,0,1-.432-.173c-.086.173-.173.259-.173.346,0,.173.173.259.259.432C26.685,36.1,26.771,36.017,26.944,35.672Zm-1.123.259c-.259,0-.432-.086-.691-.086-.086,0-.086.173-.173.259a1.6,1.6,0,0,0,.6.173C25.648,36.363,25.734,36.1,25.821,35.931Z"
          transform="translate(-11.938 -12)"></path>
    <path d="M23.056,41.114c.173,0,.346-.086.432,0,.95.518,1.123-1.123,1.814-.691.518.259.778,1.037,1.209,1.555,0,.086.432-.173.6-.259a2.135,2.135,0,0,0,.346.778c.432.432.778,1.209,1.728,1.037.173,1.3.346,1.382,1.9,1.469.432.259-1.382.778.173,1.037.518.086.95.691,1.3,1.209a1.507,1.507,0,0,0,1.814.6c1.21-.691,2.419-.432,3.542-.432a3.353,3.353,0,0,0,1.641-.518c0,.173.086.346,0,.432-.95,1.209-1.555,2.851-3.11,3.283-.778.173-.518.864-.95,1.037a4.211,4.211,0,0,1-.95.346s-.173-.086-.173-.173c-.086-.432,0-.691.6-.778s.259-.6.6-1.209c.086-.173-.086-.086-.259,0,.086.086.173.259.259.173.259-.086.432-.173.691-.259-.086-.086-.259-.173-.691,0-.95,0-1.987.864-2.246-.518a11.518,11.518,0,0,0-1.728,0c-.259.086-.432.432-.691.6-1.3.864-1.3.864-2.419-.259L27.03,48.112l-1.3-1.3c-.518-.518-1.037-1.469-1.469-1.382-.95.086-.432-1.123-1.209-1.123-.259,0-.691-.691-.864-1.123-.086-.173.086-.6.259-.778C22.711,42.065,23.143,41.719,23.056,41.114Z"
          transform="translate(-11.938 -12)"></path>
    <path d="M35.756,12a29.793,29.793,0,0,1,4.752.6A7.186,7.186,0,0,1,43.1,14.333a2.558,2.558,0,0,1,.864,2.246,5.661,5.661,0,0,0,0,1.209c0,.173-.086.259-.173.432-.086-.086-.259-.086-.346-.173-.432-.346-.778-.778-1.21-1.123a3.9,3.9,0,0,0-1.469-.95c-1.987-.173-3.974-.778-5.961-.518a1.684,1.684,0,0,0-.691.086c-.864.778-1.987.6-2.851,1.037a14.231,14.231,0,0,0-3.283,2.333c-.778.6-.6,0-.691-.346-.173-.432-1.037,0-.95-.778,0-.346-.6-.518-.086-1.037a17.841,17.841,0,0,1,6.911-4.406,8.6,8.6,0,0,1,2.592-.086Z"
          transform="translate(-11.938 -12)"></path>
    <path d="M36.793,23.058a4.883,4.883,0,0,0,0-1.123c-.086-.346-.259-.778-.346-1.123a12.134,12.134,0,0,1,1.814,0c.259,0,.086-.086,0-.086a1.063,1.063,0,0,0-.432.173c.086.259.173.432.259.691.173-.173.432-.432.173-.778-.518-.691-.259-1.382-.95-1.814a1.062,1.062,0,0,1-.432-1.209c0-1.123.778-1.728,1.814-1.209.432.173.864.6,1.3.778.518.259,1.382.346,1.555.691a3.715,3.715,0,0,1-.173,2.16c-.173.432-.259.691.086.95.778.6.691,1.209.173,1.9-.086.086,0,.346,0,.432-.518.173-.95.346-1.469.518-.173-.95-.346-1.123-.778-.864a16.646,16.646,0,0,1-2.073-.086C37.138,22.972,36.965,23.058,36.793,23.058Zm3.456-1.21c-.173-.086-.346-.259-.432-.259a1.829,1.829,0,0,0-.6.259c.086.086.259.259.346.259A5.952,5.952,0,0,1,40.248,21.849Z"
          transform="translate(-11.938 -12)"></path>
    <path d="M19.255,33.944a4.274,4.274,0,0,1,.6-2.765c.259-.259.518-.864.95-.173.259.346.518.518.778.864a9.184,9.184,0,0,0,.778.95c-1.037.432.346,1.123-.173,1.641-.173.086-.173.432-.173.6a1.3,1.3,0,0,1-1.3,1.728,1.319,1.319,0,0,1-1.641-1.382A5.638,5.638,0,0,0,19.255,33.944Z"
          transform="translate(-11.938 -12)"></path>
    <path d="M21.76,24.959c-1.209-.086-1.9-.691-1.555-1.382a6.5,6.5,0,0,0,.432-3.11,1.006,1.006,0,0,1,.95-1.123,1.128,1.128,0,0,1,1.382.6c.259.518-.259,1.641,1.037,1.3a3.913,3.913,0,0,0-.259,1.382A6.235,6.235,0,0,1,22.538,24.7C22.365,24.873,21.847,24.873,21.76,24.959Z"
          transform="translate(-11.938 -12)"></path>
    <path d="M39.644,44.916c.691-.95,1.728-1.641,1.469-3.024,0-.086.259-.259.259-.259a.675.675,0,0,1,.346.346,1.368,1.368,0,0,1,.259,1.728c-.778,1.037-1.037,2.505-2.333,3.11Z"
          transform="translate(-11.938 -12)"></path>
    <path d="M23.488,33.771V31.957c0-.173.346-.346.518-.346a3.07,3.07,0,0,1,.864.173c-.346.691.95,1.9-.691,2.246,0,.173.086.346.086.518a.779.779,0,0,1-.086.432c-.173-.086-.6-.086-.6-.173A6.479,6.479,0,0,1,23.488,33.771Z"
          transform="translate(-11.938 -12)"></path>
    <path d="M25.216,18.825a6.374,6.374,0,0,1,1.123.691c.086.086-.259.691-.518.864a3.5,3.5,0,0,1-1.814.6c-.259,0,.346-1.728.95-2.073A.317.317,0,0,0,25.216,18.825Z"
          transform="translate(-11.938 -12)"></path>
    <path d="M33.078,50.618c-.259.259-.518.778-.864.95-.259.173-.691-.086-1.037-.173-.086,0-.086-.259-.086-.432a1.456,1.456,0,0,1,1.641-.864C32.9,50.186,32.9,50.359,33.078,50.618Z"
          transform="translate(-11.938 -12)"></path>
    <path d="M23.056,41.114a1.264,1.264,0,0,1-.518-1.9c.864.086,1.209.518.95,1.209C23.4,40.683,23.143,40.855,23.056,41.114Z"
          transform="translate(-11.938 -12)"></path>
    <path d="M24.957,39.214c-.086.173-.086.259-.173.432-.086-.086-.259-.086-.346-.173s-.259-.173-.346-.346a7.139,7.139,0,0,1-.6-1.123.655.655,0,0,1,.346-.173A1.31,1.31,0,0,1,24.957,39.214Z"
          transform="translate(-11.938 -12)"></path>
    <path d="M35.842,18.22a1.46,1.46,0,0,1-.173.432c-.086-.173-.259-.432-.346-.6s0-.346,0-.432c-.086-.259-.173-.432-.259-.691a3.742,3.742,0,0,0,.432-.086,1.737,1.737,0,0,1,.346.691C35.929,17.7,35.842,17.875,35.842,18.22Z"
          transform="translate(-11.938 -12)"></path>
    <path d="M22.451,39.559a14.247,14.247,0,0,1-.778-1.382.608.608,0,0,1,.432-.346c.778,0,.432.6.518.95C22.538,38.868,22.538,39.041,22.451,39.559Z"
          transform="translate(-11.938 -12)"></path>
    <path d="M24.7,24.959l-.691-.691c.346-.086.6-.173.95-.259.086,0,.259.346.259.346C25.13,24.527,24.87,24.7,24.7,24.959Z"
          transform="translate(-11.938 -12)"></path>
    <path d="M24.093,26a2.925,2.925,0,0,1-.259.691c-.086-.259-.259-.432-.259-.691a1.6,1.6,0,0,1,.173-.6A1.393,1.393,0,0,0,24.093,26Z"
          transform="translate(-11.938 -12)"></path>
    <path d="M42.495,19.775l.259-.518c.086.086.259.259.259.346a1.829,1.829,0,0,1-.259.6C42.667,20.035,42.581,19.948,42.495,19.775Z"
          transform="translate(-11.938 -12)"></path>
    <path d="M23.056,36.363a1.889,1.889,0,0,1-.259.432c-.086-.259-.173-.432-.259-.691,0-.086.173-.173.173-.259A1.807,1.807,0,0,1,23.056,36.363Z"
          transform="translate(-11.938 -12)"></path>
    <path d="M31,37.227c.346.173.432.173.518.259-.259.259-.432.518-.691.778-.086-.086-.259-.173-.173-.259A3.069,3.069,0,0,1,31,37.227Z"
          transform="translate(-11.938 -12)"></path>
    <path d="M40.162,24.009v.518a1.517,1.517,0,0,1-.432-.346C39.9,24.1,39.989,24.009,40.162,24.009Z"
          transform="translate(-11.938 -12)"></path>
    <path d="M40.162,24.441a1.517,1.517,0,0,1,.432.346c-.173.086-.259.086-.432.173Z"
          transform="translate(-11.938 -12)"></path>
</svg>